<?xml version="1.0" encoding="UTF-8" standalone="no" ?>
<!DOCTYPE svg PUBLIC "-//W3C//DTD SVG 1.1//EN" "http://www.w3.org/Graphics/SVG/1.1/DTD/svg11.dtd">
<svg xmlns="http://www.w3.org/2000/svg" xmlns:xlink="http://www.w3.org/1999/xlink" version="1.1" width="910" height="600" viewBox="19.94 55.38 910 600" xml:space="preserve">
<desc>Created with Fabric.js 5.2.4</desc>
<defs>
</defs>
<rect x="0" y="0" width="100%" height="100%" fill="transparent"></rect>
<g transform="matrix(1 0 0 1 455 300)" id="184a5578-b77f-4df0-8514-6c934dd087f5"  >
<rect style="stroke: none; stroke-width: 1; stroke-dasharray: none; stroke-linecap: butt; stroke-dashoffset: 0; stroke-linejoin: miter; stroke-miterlimit: 4; fill: rgb(255,255,255); fill-rule: nonzero; opacity: 1; visibility: hidden;" vector-effect="non-scaling-stroke"  x="-455" y="-300" rx="0" ry="0" width="910" height="600" />
</g>
<g transform="matrix(Infinity NaN NaN Infinity 0 0)" id="444fdd5e-c227-431f-a777-aa47d00a18d4"  >
</g>
<g transform="matrix(1.49 0 0 1.49 473 354.8)"  >
<g style="" vector-effect="non-scaling-stroke"   >
		<g transform="matrix(1 0 0 1 0 0)"  >
<path style="stroke: none; stroke-width: 1; stroke-dasharray: none; stroke-linecap: butt; stroke-dashoffset: 0; stroke-linejoin: miter; stroke-miterlimit: 4; fill: rgb(65,71,155); fill-rule: nonzero; opacity: 1;" vector-effect="non-scaling-stroke"  transform=" translate(-206.55, -168.49)" d="M 0 0 C 1.85796948 -0.00461485 3.71593529 -0.01097167 5.57389355 -0.01890898 C 10.65442257 -0.03554515 15.7346495 -0.02738193 20.81517935 -0.0149641 C 26.30402221 -0.00589252 31.79281408 -0.0198938 37.28164673 -0.03088379 C 48.02439246 -0.04865107 58.76702627 -0.04483697 69.50977635 -0.03323323 C 78.2422345 -0.02419215 86.97466132 -0.02297783 95.7071228 -0.02732849 C 96.95094481 -0.02794142 98.19476681 -0.02855436 99.47628039 -0.02918586 C 102.00324322 -0.03046479 104.53020603 -0.03176164 107.05716884 -0.03307623 C 130.06619019 -0.04415192 153.07516202 -0.03267463 176.08417122 -0.01170584 C 197.07185317 0.00727545 218.05943803 0.00557689 239.04711914 -0.0135498 C 262.6474587 -0.0349858 286.24775694 -0.04337819 309.84810734 -0.03110075 C 312.36566733 -0.02982658 314.88322734 -0.0285691 317.40078735 -0.02732849 C 319.25871919 -0.02640284 319.25871919 -0.02640284 321.154185 -0.02545848 C 329.87407403 -0.02200777 338.59392857 -0.02782795 347.31381226 -0.0372467 C 357.9434197 -0.04847608 368.57290902 -0.04540679 379.20250297 -0.02412373 C 384.62375243 -0.01362607 390.04480509 -0.00946972 395.46605301 -0.02272034 C 400.43287476 -0.03467646 405.39931805 -0.02802853 410.36610568 -0.00681013 C 412.15867701 -0.00235772 413.9512806 -0.00457958 415.74383104 -0.01431328 C 429.16371376 -0.08157025 440.69958268 1.02141105 451.29223633 10.16418457 C 460.46112217 19.66562067 462.85913728 29.00228931 462.82138062 41.75372314 C 462.82591173 42.87900335 462.83044284 44.00428355 462.83511126 45.16366315 C 462.84776121 48.93048038 462.84613447 52.69715314 462.84448242 56.46398926 C 462.84938141 59.16635685 462.85721632 61.86871434 462.86483765 64.57107544 C 462.88142639 71.14781855 462.88694624 77.72452581 462.8880624 84.3012881 C 462.88901393 89.64952571 462.89312946 94.99775153 462.89946365 100.34598541 C 462.91707063 115.52206991 462.92630343 130.69812616 462.92480271 145.87422094 C 462.92468284 147.10056544 462.92468284 147.10056544 462.92456055 148.35168457 C 462.92447879 149.17025032 462.92439702 149.98881607 462.92431279 150.83218685 C 462.92350014 164.09367173 462.94263367 177.35504296 462.97083728 190.61649498 C 462.9995937 204.24585736 463.01337604 217.87516437 463.01164973 231.50455785 C 463.01098676 239.15134943 463.01643822 246.79802188 463.03800583 254.44478607 C 463.05625403 260.95620163 463.06053527 267.46744406 463.04698698 273.97887418 C 463.04047526 277.29786885 463.04246509 280.6162619 463.05769348 283.9352684 C 463.07316664 287.54187697 463.06382274 291.147621 463.0484314 294.75421143 C 463.05871852 295.79129706 463.06900565 296.8283827 463.07960451 297.89689517 C 462.97972502 308.52817773 459.73316677 317.2051222 452.82348633 325.28137207 C 441.57394638 336.31792589 428.28185496 336.9497544 413.46867371 336.89561462 C 411.61329508 336.89978993 409.75791901 336.90526853 407.90254766 336.91193444 C 402.81528991 336.92638204 397.72819427 336.9221464 392.64092767 336.91476762 C 387.14999203 336.91003655 381.6590915 336.92254533 376.16816711 336.93278503 C 365.4150035 336.94997991 354.6618983 336.95081155 343.90872451 336.94557213 C 335.16761667 336.94153024 326.4265261 336.94297422 317.68541908 336.94832039 C 315.81907637 336.94944302 315.81907637 336.94944302 313.91502977 336.95058833 C 311.38734234 336.95211982 308.85965493 336.95365817 306.33196751 336.9552033 C 289.36076872 336.96503188 272.38957618 336.96919606 255.41837597 336.96157742 C 254.42329044 336.96113166 254.42329044 336.96113166 253.40810218 336.96067689 C 248.02122993 336.95822806 242.63435776 336.95561642 237.2474856 336.95299276 C 216.24015535 336.94289253 195.23290504 336.95124249 174.22558594 336.9744873 C 150.61098894 337.00057496 126.9964281 337.01335418 103.38181382 337.00629956 C 90.8831152 337.00280689 78.38448221 337.00504249 65.88579369 337.02255058 C 55.24514003 337.03727113 44.60459824 337.03790991 33.96394678 337.02047967 C 28.53663841 337.01196591 23.10952987 337.00982949 17.6822319 337.02513123 C 12.70974587 337.0389769 7.73763088 337.03421645 2.76516632 337.01489199 C 0.97048378 337.01113132 -0.82422847 337.01405587 -2.61888454 337.02450364 C -16.04644481 337.09708825 -27.58491842 336.00028772 -38.18432617 326.85168457 C -47.35321201 317.35024847 -49.75122712 308.01357983 -49.71347046 295.262146 C -49.71800157 294.13686579 -49.72253268 293.01158559 -49.7272011 291.85220599 C -49.73985106 288.08538876 -49.73822432 284.318716 -49.73657227 280.55187988 C -49.74147126 277.84951229 -49.74930616 275.1471548 -49.75692749 272.4447937 C -49.77351623 265.86805059 -49.77903608 259.29134333 -49.78015225 252.71458104 C -49.78110377 247.36634343 -49.7852193 242.01811761 -49.7915535 236.66988373 C -49.80916048 221.49379923 -49.81839327 206.31774299 -49.81689255 191.1416482 C -49.81681264 190.3240852 -49.81673272 189.50652221 -49.81665039 188.66418457 C -49.81656863 187.84561882 -49.81648687 187.02705307 -49.81640263 186.18368229 C -49.81558999 172.92219741 -49.83472352 159.66082618 -49.86292712 146.39937416 C -49.89168354 132.77001178 -49.90546589 119.14070477 -49.90373957 105.51131129 C -49.9030766 97.86451971 -49.90852806 90.21784726 -49.93009567 82.57108307 C -49.94834388 76.05966751 -49.95262511 69.54842508 -49.93907683 63.03699496 C -49.93256511 59.71800029 -49.93455494 56.39960724 -49.94978333 53.08060074 C -49.96525648 49.47399217 -49.95591258 45.86824814 -49.94052124 42.26165771 C -49.95080837 41.22457208 -49.96109549 40.18748644 -49.97169435 39.11897397 C -49.85910977 27.13534705 -45.6650377 18.11682264 -37.44604492 9.50793457 C -27.26216363 -0.31481618 -13.19353167 -0.07164203 0 0 Z" stroke-linecap="round" />
</g>
		<g transform="matrix(1 0 0 1 -127.96 -84.05)"  >
<path style="stroke: none; stroke-width: 1; stroke-dasharray: none; stroke-linecap: butt; stroke-dashoffset: 0; stroke-linejoin: miter; stroke-miterlimit: 4; fill: rgb(254,75,85); fill-rule: nonzero; opacity: 1;" vector-effect="non-scaling-stroke"  transform=" translate(-76.04, -84.39)" d="M 0 0 C 2.11011737 0.00112989 4.22023632 0.00049186 6.33035278 -0.00177002 C 12.02794723 -0.00291257 17.72520138 0.02052235 23.42271709 0.04852581 C 29.38842203 0.07361617 35.3541357 0.07588748 41.31988525 0.08062744 C 52.60308762 0.09303481 63.88613404 0.12582613 75.16926789 0.1660254 C 88.02054928 0.21081284 100.87183832 0.23274768 113.72317839 0.25280714 C 140.14659324 0.29456072 166.56986989 0.36486919 192.99316406 0.45410156 C 189.20161391 3.52297293 185.31315132 6.33222221 181.24316406 9.01660156 C 180.5926709 9.44787354 179.94217773 9.87914551 179.27197266 10.32348633 C 172.26164383 14.95951035 165.20166177 19.51884543 158.13720703 24.07177734 C 152.50505834 27.70298048 146.8805064 31.34596123 141.25585938 34.98876953 C 139.70070721 35.99589332 138.14535776 37.00271251 136.58984375 38.00927734 C 124.66095937 45.73086911 112.79675513 53.54227422 100.99316406 61.45410156 C 109.54640185 63.29319365 115.28038735 61.80478051 122.52636719 57.30981445 C 126.35780041 54.78088949 130.14855993 52.19942817 133.91601562 49.57617188 C 139.24301561 45.90255367 144.69058067 42.41402822 150.11816406 38.89160156 C 152.31944962 37.45006032 154.51998102 36.00736673 156.71972656 34.56347656 C 163.09848506 30.3808751 169.4939523 26.22436671 175.90161133 22.08618164 C 180.01113859 19.42428544 184.08494492 16.72089152 188.12207031 13.95019531 C 188.9509375 13.38469971 189.77980469 12.8192041 190.63378906 12.23657227 C 192.21154892 11.15679286 193.78351115 10.06847715 195.34863281 8.97045898 C 196.04730469 8.49326416 196.74597656 8.01606934 197.46582031 7.52441406 C 198.0769165 7.09918457 198.6880127 6.67395508 199.31762695 6.23583984 C 200.99316406 5.45410156 200.99316406 5.45410156 203.99316406 6.45410156 C 204.70986972 9.98695368 204.85395477 12.93498661 203.99316406 16.45410156 C 201.32833867 19.41689267 198.15427015 21.35050367 194.75048828 23.39257812 C 192.97219495 24.46676809 191.23353575 25.58710236 189.49707031 26.72753906 C 186.76649282 28.518829 184.02477569 30.29099145 181.27441406 32.05175781 C 173.89528629 36.78942681 166.57528276 41.61814502 159.24688721 46.43374634 C 157.43616669 47.62345847 155.62484281 48.81224789 153.81347656 50.00097656 C 152.76434082 50.69030273 151.71520508 51.37962891 150.63427734 52.08984375 C 145.77549454 55.24476213 140.8806721 58.34386918 135.99316406 61.45410156 C 169.65316406 61.94910156 169.65316406 61.94910156 203.99316406 62.45410156 C 203.99316406 76.97410156 203.99316406 91.49410156 203.99316406 106.45410156 C 181.55316406 106.78410156 159.11316406 107.11410156 135.99316406 107.45410156 C 141.10816406 110.87785156 146.22316406 114.30160156 151.49316406 117.82910156 C 153.07033203 118.88661621 154.6475 119.94413086 156.27246094 121.03369141 C 164.60049787 126.60375615 173.01019845 132.01226278 181.52441406 137.29296875 C 185.4820436 139.75002364 189.38024349 142.288329 193.24316406 144.89160156 C 194.15775391 145.50165039 194.15775391 145.50165039 195.09082031 146.12402344 C 196.73203246 147.22352831 198.36314463 148.33807067 199.99316406 149.45410156 C 200.78722656 149.95683594 201.58128906 150.45957031 202.39941406 150.97753906 C 203.99316406 152.45410156 203.99316406 152.45410156 204.38378906 154.49707031 C 204.25358073 156.4827474 204.1233724 158.46842448 203.99316406 160.45410156 C 203.38472656 160.06480469 202.77628906 159.67550781 202.14941406 159.27441406 C 197.38941468 156.23641446 192.61973064 153.21983217 187.81762695 150.2487793 C 177.53044075 143.87202822 167.42119504 137.22496025 157.30175781 130.58691406 C 151.40982203 126.72245326 145.51332577 122.8639852 139.56420898 119.08789062 C 136.55131147 117.1665357 133.63216875 115.21733739 130.82128906 113.00878906 C 122.71045238 106.85056121 116.89451359 106.48019833 106.99316406 107.45410156 C 116.48717783 113.63002042 125.98173168 119.80503091 135.49316406 125.95410156 C 141.6659053 129.94478937 147.83133343 133.94658854 153.99316406 137.95410156 C 159.51995369 141.5483918 165.04787061 145.14087486 170.58325195 148.72192383 C 171.96711205 149.61738166 173.35042516 150.51368545 174.7331543 151.41088867 C 178.41837868 153.79993977 182.11572576 156.16760007 185.82910156 158.51269531 C 186.61969971 159.01526855 187.41029785 159.5178418 188.22485352 160.03564453 C 189.75096873 161.00531196 191.28064126 161.96940863 192.81420898 162.92724609 C 194.57532557 164.050065 196.28986261 165.24537575 197.99316406 166.45410156 C 197.99316406 167.11410156 197.99316406 167.77410156 197.99316406 168.45410156 C 182.73690904 170.00648876 174.33177215 167.09130326 162.11816406 158.14160156 C 160.6104481 157.08722202 159.09947723 156.03748306 157.58544922 154.9921875 C 154.51693554 152.8678131 151.46382175 150.72384191 148.42089844 148.56298828 C 142.44229643 144.33745994 136.31268672 140.35055985 130.168396 136.37173462 C 127.36067559 134.55064307 124.56458962 132.71198568 121.76660156 130.87597656 C 113.85704815 125.71241574 105.92358731 120.5855519 97.99316406 115.45410156 C 97.99316406 132.94410156 97.99316406 150.43410156 97.99316406 168.45410156 C 83.47316406 168.45410156 68.95316406 168.45410156 53.99316406 168.45410156 C 53.99316406 150.96410156 53.99316406 133.47410156 53.99316406 115.45410156 C 40.32579906 124.35993295 26.66923129 133.28169679 13.02612305 142.22460938 C 3.36475929 148.55726527 -6.30247654 154.88089592 -15.97290039 161.19970703 C -16.98698975 161.86244629 -18.0010791 162.52518555 -19.04589844 163.20800781 C -20.37935303 164.07921265 -20.37935303 164.07921265 -21.73974609 164.96801758 C -23.50057855 166.12224837 -25.25502332 167.28622648 -27.00683594 168.45410156 C -30.36230469 168.64941406 -30.36230469 168.64941406 -34.19433594 168.57910156 C -35.46664062 168.56105469 -36.73894531 168.54300781 -38.04980469 168.52441406 C -39.025625 168.50121094 -40.00144531 168.47800781 -41.00683594 168.45410156 C -36.57585703 164.72133751 -31.80875647 161.64185089 -26.94433594 158.51660156 C -25.14090486 157.35130764 -23.33752075 156.18594104 -21.53417969 155.02050781 C -20.61491699 154.4277002 -19.6956543 153.83489258 -18.74853516 153.22412109 C -14.49456923 150.47779402 -10.25095354 147.71561302 -6.00683594 144.95410156 C -4.34022513 143.87068229 -2.6735583 142.7873492 -1.00683594 141.70410156 C -0.18183594 141.16785156 0.64316406 140.63160156 1.49316406 140.07910156 C 3.99316406 138.45410156 6.49316406 136.82910156 8.99316406 135.20410156 C 10.23211426 134.39875977 10.23211426 134.39875977 11.49609375 133.57714844 C 13.15293523 132.50023388 14.80983571 131.42341008 16.46679688 130.34667969 C 20.78429184 127.54090313 25.1005698 124.73327893 29.41503906 121.92285156 C 30.30707031 121.34212891 31.19910156 120.76140625 32.11816406 120.16308594 C 33.811257 119.06081189 35.50399232 117.95798823 37.19628906 116.85449219 C 42.09520479 113.66611453 47.02450261 110.53269646 51.99316406 107.45410156 C 40.57307224 105.42963074 34.05232375 108.45441457 24.75195312 114.91577148 C 23.02073588 116.14316851 21.29468654 117.37788544 19.57373047 118.61962891 C 15.46982548 121.53701226 11.23063378 124.23625035 6.99316406 126.95410156 C 5.32967428 128.03370773 3.66691489 129.11444013 2.00488281 130.19628906 C 1.18036621 130.7322168 0.35584961 131.26814453 -0.49365234 131.8203125 C -3.03340302 133.47137249 -5.5728847 135.12284551 -8.11230469 136.77441406 C -9.80629727 137.87600399 -11.50030756 138.97756668 -13.19433594 140.07910156 C -14.01909424 140.61543213 -14.84385254 141.1517627 -15.69360352 141.7043457 C -19.70115688 144.30935444 -23.71086888 146.91092579 -27.72558594 149.50488281 C -28.8494873 150.23106812 -28.8494873 150.23106812 -29.99609375 150.97192383 C -31.43520071 151.90133375 -32.87464111 152.83022762 -34.31445312 153.75854492 C -38.7367782 156.6146744 -43.11651841 159.52442892 -47.44042969 162.52832031 C -49.00683594 163.45410156 -49.00683594 163.45410156 -51.00683594 163.45410156 C -52.27398292 160.91980759 -52.14123949 159.15229665 -52.15400696 156.31434631 C -52.16116226 155.22523956 -52.16831757 154.13613281 -52.1756897 153.01402283 C -52.1783786 151.81354813 -52.1810675 150.61307343 -52.18383789 149.3762207 C -52.19040909 148.11588013 -52.19698029 146.85553955 -52.20375061 145.55700684 C -52.22480956 141.36777015 -52.23516088 137.17853305 -52.24511719 132.98925781 C -52.24916533 131.54511432 -52.25328226 130.10097103 -52.25746727 128.65682793 C -52.27653009 121.86568397 -52.29075372 115.07455091 -52.29907924 108.28338534 C -52.30882895 100.46032703 -52.3350841 92.63755339 -52.37558013 84.81459528 C -52.40583795 78.76007835 -52.42055759 72.70564248 -52.42386025 66.65105146 C -52.42620155 63.03946175 -52.43503941 59.42817571 -52.46032143 55.81666756 C -52.48814473 51.77644409 -52.48374169 47.73684668 -52.47680664 43.6965332 C -52.4896167 42.51427658 -52.50242676 41.33201996 -52.515625 40.11393738 C -52.43769009 27.60535537 -48.62922501 18.48552237 -40.00683594 9.45410156 C -29.16591173 -1.00239271 -13.96574419 -0.10513686 0 0 Z" stroke-linecap="round" />
</g>
		<g transform="matrix(1 0 0 1 -198.5 -132.71)"  >
<path style="stroke: none; stroke-width: 1; stroke-dasharray: none; stroke-linecap: butt; stroke-dashoffset: 0; stroke-linejoin: miter; stroke-miterlimit: 4; fill: rgb(243,240,241); fill-rule: nonzero; opacity: 1;" vector-effect="non-scaling-stroke"  transform=" translate(-6.95, -35.66)" d="M 0 0 C 1.86614369 0.00747551 3.73229531 0.01316224 5.59844971 0.01715088 C 10.47129617 0.03230418 15.3436533 0.0714951 20.21630859 0.1159668 C 26.08348481 0.16440433 31.95082614 0.18250267 37.81814575 0.20578003 C 46.6968108 0.244354 55.57440562 0.3210789 64.453125 0.390625 C 64.453125 23.820625 64.453125 47.250625 64.453125 71.390625 C 26.503125 71.390625 -11.446875 71.390625 -50.546875 71.390625 C -50.546875 21.95988496 -50.546875 21.95988496 -38.546875 9.390625 C -28.05643423 -0.72781432 -13.54811675 -0.16076219 0 0 Z" stroke-linecap="round" />
</g>
		<g transform="matrix(1 0 0 1 -57.2 -132.49)"  >
<path style="stroke: none; stroke-width: 1; stroke-dasharray: none; stroke-linecap: butt; stroke-dashoffset: 0; stroke-linejoin: miter; stroke-miterlimit: 4; fill: rgb(243,240,241); fill-rule: nonzero; opacity: 1;" vector-effect="non-scaling-stroke"  transform=" translate(-57.8, -35.5)" d="M 0 0 C 34.32 0 68.64 0 104 0 C 100.16759945 3.06592044 96.33349056 5.86921448 92.25 8.5625 C 91.59950684 8.99377197 90.94901367 9.42504395 90.27880859 9.86938477 C 83.26847977 14.50540879 76.2084977 19.06474387 69.14404297 23.61767578 C 63.51189427 27.24887891 57.88734233 30.89185966 52.26269531 34.53466797 C 50.70754315 35.54179176 49.15219369 36.54861095 47.59667969 37.55517578 C 35.66779531 45.27676754 23.80359107 53.08817265 12 61 C 20.55323779 62.83909208 26.28722328 61.35067895 33.53320312 56.85571289 C 37.36463635 54.32678792 41.15539587 51.7453266 44.92285156 49.12207031 C 50.24985154 45.44845211 55.69741661 41.95992666 61.125 38.4375 C 63.32628556 36.99595875 65.52681696 35.55326517 67.7265625 34.109375 C 74.105321 29.92677354 80.50078824 25.77026514 86.90844727 21.63208008 C 91.01797452 18.97018388 95.09178086 16.26678996 99.12890625 13.49609375 C 99.95777344 12.93059814 100.78664063 12.36510254 101.640625 11.7824707 C 103.21838486 10.7026913 104.79034708 9.61437559 106.35546875 8.51635742 C 107.05414063 8.0391626 107.7528125 7.56196777 108.47265625 7.0703125 C 109.08375244 6.64508301 109.69484863 6.21985352 110.32446289 5.78173828 C 112 5 112 5 115 6 C 115.71670566 9.53285212 115.86079071 12.48088505 115 16 C 112.3351746 18.9627911 109.16110609 20.89640211 105.75732422 22.93847656 C 103.97903089 24.01266653 102.24037169 25.1330008 100.50390625 26.2734375 C 97.77332876 28.06472743 95.03161163 29.83688989 92.28125 31.59765625 C 84.90212222 36.33532525 77.58211869 41.16404345 70.25372314 45.97964478 C 68.44300263 47.16935691 66.63167875 48.35814633 64.8203125 49.546875 C 63.77117676 50.23620117 62.72204102 50.92552734 61.64111328 51.63574219 C 56.78233048 54.79066056 51.88750803 57.88976761 47 61 C 80.66 61.495 80.66 61.495 115 62 C 115 64.97 115 67.94 115 71 C 77.05 71 39.1 71 0 71 C 0 47.57 0 24.14 0 0 Z" stroke-linecap="round" />
</g>
		<g transform="matrix(1 0 0 1 -198.57 -35.4)"  >
<path style="stroke: none; stroke-width: 1; stroke-dasharray: none; stroke-linecap: butt; stroke-dashoffset: 0; stroke-linejoin: miter; stroke-miterlimit: 4; fill: rgb(244,239,240); fill-rule: nonzero; opacity: 1;" vector-effect="non-scaling-stroke"  transform=" translate(-57.43, -35.58)" d="M 0 0 C 37.95 0 75.9 0 115 0 C 115 23.43 115 46.86 115 71 C 112.03 71 109.06 71 106 71 C 106 53.51 106 36.02 106 18 C 92.332635 26.90583139 78.67606723 35.82759522 65.03295898 44.77050781 C 55.37159522 51.10316371 45.7043594 57.42679436 36.03393555 63.74560547 C 35.01984619 64.40834473 34.00575684 65.07108398 32.9609375 65.75390625 C 32.07196777 66.33470947 31.18299805 66.9155127 30.26708984 67.51391602 C 28.50625739 68.66814681 26.75181262 69.83212492 25 71 C 21.64453125 71.1953125 21.64453125 71.1953125 17.8125 71.125 C 16.54019531 71.10695313 15.26789062 71.08890625 13.95703125 71.0703125 C 12.98121094 71.04710937 12.00539063 71.02390625 11 71 C 15.43097891 67.26723595 20.19807947 64.18774933 25.0625 61.0625 C 26.86593107 59.89720607 28.66931519 58.73183947 30.47265625 57.56640625 C 31.39191895 56.97359863 32.31118164 56.38079102 33.25830078 55.77001953 C 37.51226671 53.02369246 41.7558824 50.26151145 46 47.5 C 47.66661081 46.41658073 49.33327764 45.33324764 51 44.25 C 51.825 43.71375 52.65 43.1775 53.5 42.625 C 57.25 40.1875 57.25 40.1875 61 37.75 C 62.2389502 36.9446582 62.2389502 36.9446582 63.50292969 36.12304688 C 65.15977116 35.04613231 66.81667164 33.96930852 68.47363281 32.89257812 C 72.79112777 30.08680157 77.10740574 27.27917737 81.421875 24.46875 C 82.75992188 23.59766602 82.75992188 23.59766602 84.125 22.70898438 C 85.81809294 21.60671032 87.51082826 20.50388667 89.203125 19.40039062 C 94.10204073 16.21201297 99.03133855 13.0785949 104 10 C 92.57990818 7.97552918 86.05915969 11.00031301 76.75878906 17.46166992 C 75.02757181 18.68906695 73.30152248 19.92378388 71.58056641 21.16552734 C 67.47666142 24.0829107 63.23746972 26.78214879 59 29.5 C 57.33651022 30.57960617 55.67375083 31.66033857 54.01171875 32.7421875 C 53.18720215 33.27811523 52.36268555 33.81404297 51.51318359 34.36621094 C 48.97343292 36.01727093 46.43395124 37.66874395 43.89453125 39.3203125 C 42.20053867 40.42190243 40.50652837 41.52346511 38.8125 42.625 C 37.9877417 43.16133057 37.1629834 43.69766113 36.31323242 44.25024414 C 32.30567906 46.85525288 28.29596706 49.45682422 24.28125 52.05078125 C 23.53198242 52.53490479 22.78271484 53.01902832 22.01074219 53.51782227 C 20.57163523 54.44723219 19.13219482 55.37612606 17.69238281 56.30444336 C 13.27005774 59.16057283 8.89031753 62.07032735 4.56640625 65.07421875 C 3 66 3 66 1 66 C -0.38425411 63.23149177 -0.11959962 60.99580816 -0.11352539 57.89794922 C -0.11340454 56.59881592 -0.11328369 55.29968262 -0.11315918 53.96118164 C -0.10812318 52.57568311 -0.10295657 51.19018505 -0.09765625 49.8046875 C -0.09664917 48.54857666 -0.09564209 47.29246582 -0.09460449 45.99829102 C -0.08935883 41.2905181 -0.07539765 36.58275817 -0.0625 31.875 C -0.041875 21.35625 -0.02125 10.8375 0 0 Z" stroke-linecap="round" />
</g>
		<g transform="matrix(1 0 0 1 -57.3 -35.29)"  >
<path style="stroke: none; stroke-width: 1; stroke-dasharray: none; stroke-linecap: butt; stroke-dashoffset: 0; stroke-linejoin: miter; stroke-miterlimit: 4; fill: rgb(243,239,240); fill-rule: nonzero; opacity: 1;" vector-effect="non-scaling-stroke"  transform=" translate(-57.7, -35.7)" d="M 0 0 C 37.95 0 75.9 0 115 0 C 115 2.97 115 5.94 115 9 C 92.56 9.33 70.12 9.66 47 10 C 52.115 13.42375 57.23 16.8475 62.5 20.375 C 64.07716797 21.43251465 65.65433594 22.4900293 67.27929688 23.57958984 C 75.6073338 29.14965459 84.01703439 34.55816122 92.53125 39.83886719 C 96.48887953 42.29592208 100.38707942 44.83422744 104.25 47.4375 C 104.85972656 47.84419922 105.46945313 48.25089844 106.09765625 48.66992188 C 107.7388684 49.76942675 109.36998057 50.88396911 111 52 C 111.7940625 52.50273437 112.588125 53.00546875 113.40625 53.5234375 C 115 55 115 55 115.390625 57.04296875 C 115.26041667 59.02864583 115.13020833 61.01432292 115 63 C 114.3915625 62.61070312 113.783125 62.22140625 113.15625 61.8203125 C 108.39625062 58.78231289 103.62656658 55.76573061 98.82446289 52.79467773 C 88.53727669 46.41792665 78.42803097 39.77085869 68.30859375 33.1328125 C 62.41665796 29.2683517 56.5201617 25.40988363 50.57104492 21.63378906 C 47.55814741 19.71243413 44.63900468 17.76323582 41.828125 15.5546875 C 33.71728832 9.39645965 27.90134953 9.02609677 18 10 C 27.49401377 16.17591885 36.98856762 22.35092935 46.5 28.5 C 52.67274124 32.49068781 58.83816937 36.49248698 65 40.5 C 70.52678963 44.09429024 76.05470655 47.6867733 81.59008789 51.26782227 C 82.97394798 52.1632801 84.35726109 53.05958389 85.73999023 53.95678711 C 89.42521462 56.34583821 93.1225617 58.71349851 96.8359375 61.05859375 C 97.62653564 61.56116699 98.41713379 62.06374023 99.23168945 62.58154297 C 100.75780467 63.5512104 102.28747719 64.51530707 103.82104492 65.47314453 C 105.58216151 66.59596343 107.29669855 67.79127419 109 69 C 109 69.66 109 70.32 109 71 C 93.74374498 72.55238719 85.33860809 69.6372017 73.125 60.6875 C 71.61728403 59.63312046 70.10631317 58.5833815 68.59228516 57.53808594 C 65.52377147 55.41371154 62.47065768 53.26974034 59.42773438 51.10888672 C 53.44913237 46.88335838 47.31952266 42.89645829 41.17523193 38.91763306 C 38.36751153 37.09654151 35.57142556 35.25788412 32.7734375 33.421875 C 24.86388409 28.25831418 16.93042325 23.13145034 9 18 C 9 35.49 9 52.98 9 71 C 6.03 71 3.06 71 0 71 C 0 47.57 0 24.14 0 0 Z" stroke-linecap="round" />
</g>
		<g transform="matrix(1 0 0 1 -127 86.01)"  >
<path style="stroke: none; stroke-width: 1; stroke-dasharray: none; stroke-linecap: butt; stroke-dashoffset: 0; stroke-linejoin: miter; stroke-miterlimit: 4; fill: rgb(241,241,243); fill-rule: nonzero; opacity: 1;" vector-effect="non-scaling-stroke"  transform=" translate(-2, -39)" d="M 0 0 C 1.89355469 0.24072266 1.89355469 0.24072266 4 1 C 5.00488281 2.81005859 5.00488281 2.81005859 5.703125 5.1484375 C 5.9609375 5.98890625 6.21875 6.829375 6.484375 7.6953125 C 6.73703125 8.57960938 6.9896875 9.46390625 7.25 10.375 C 7.518125 11.2515625 7.78625 12.128125 8.0625 13.03125 C 10 19.49617347 10 19.49617347 10 23 C 10.54938232 22.75765625 11.09876465 22.5153125 11.66479492 22.265625 C 14.16832926 21.16760678 16.6777438 20.08371676 19.1875 19 C 20.05181641 18.6184375 20.91613281 18.236875 21.80664062 17.84375 C 22.64775391 17.4828125 23.48886719 17.121875 24.35546875 16.75 C 25.12528076 16.41484375 25.89509277 16.0796875 26.68823242 15.734375 C 29.24049266 14.92360313 31.33826057 14.8682511 34 15 C 33.5853677 20.3902199 30.48058685 24.06129627 27.4375 28.3125 C 26.91736328 29.05306641 26.39722656 29.79363281 25.86132812 30.55664062 C 24.58156882 32.37648184 23.29437782 34.19054184 22 36 C 31.90927842 42.15238215 31.90927842 42.15238215 42 48 C 41.67 49.32 41.34 50.64 41 52 C 33.08 52.33 25.16 52.66 17 53 C 17.474375 54.918125 17.94875 56.83625 18.4375 58.8125 C 19.84642302 64.87352731 20.63935639 70.79444279 21 77 C 19.02 77.495 19.02 77.495 17 78 C 16.24074219 77.16855469 15.48148438 76.33710938 14.69921875 75.48046875 C 13.69534886 74.38277925 12.6914406 73.28512484 11.6875 72.1875 C 11.18798828 71.64029297 10.68847656 71.09308594 10.17382812 70.52929688 C 7.23247907 67.31255724 7.23247907 67.31255724 4.14453125 64.23828125 C 3 63 3 63 3 61 C -1.60388182 64.75827087 -5.58816922 68.62663971 -9.421875 73.16796875 C -12.44745223 76.68033439 -12.44745223 76.68033439 -14 78 C -14.99 78 -15.98 78 -17 78 C -17.18208839 72.34767292 -16.49420813 67.12021301 -15.5 61.5625 C -15.28537109 60.32209961 -15.28537109 60.32209961 -15.06640625 59.05664062 C -14.71615337 57.03684899 -14.35880704 55.01828958 -14 53 C -14.65484375 53.01160156 -15.3096875 53.02320313 -15.984375 53.03515625 C -23.0436634 53.10495147 -29.97575988 52.68648769 -37 52 C -37.33 50.68 -37.66 49.36 -38 48 C -31.73 44.37 -25.46 40.74 -19 37 C -20.82356917 32.429746 -20.82356917 32.429746 -23.3828125 28.5546875 C -23.82753906 27.95269531 -24.27226563 27.35070312 -24.73046875 26.73046875 C -25.66672899 25.48474434 -26.60424719 24.23996447 -27.54296875 22.99609375 C -31 18.30944789 -31 18.30944789 -31 15 C -25.33171945 15.59468016 -20.39677846 17.09242801 -15.0625 19.0625 C -14.28326172 19.34416016 -13.50402344 19.62582031 -12.70117188 19.91601562 C -10.79859875 20.60467706 -8.89898275 21.30149903 -7 22 C -6.823479 21.40461426 -6.64695801 20.80922852 -6.46508789 20.19580078 C -5.66613825 17.50496153 -4.86435473 14.81497491 -4.0625 12.125 C -3.64581055 10.71927734 -3.64581055 10.71927734 -3.22070312 9.28515625 C -2.81948242 7.94130859 -2.81948242 7.94130859 -2.41015625 6.5703125 C -2.16402588 5.74289551 -1.91789551 4.91547852 -1.66430664 4.06298828 C -1 2 -1 2 0 0 Z" stroke-linecap="round" />
</g>
		<g transform="matrix(1 0 0 1 -65.5 -140.99)"  >
<path style="stroke: none; stroke-width: 1; stroke-dasharray: none; stroke-linecap: butt; stroke-dashoffset: 0; stroke-linejoin: miter; stroke-miterlimit: 4; fill: rgb(66,72,155); fill-rule: nonzero; opacity: 1;" vector-effect="non-scaling-stroke"  transform=" translate(-40.5, -27)" d="M 0 0 C 26.73 0 53.46 0 81 0 C 78.10143854 2.89856146 76.02610853 4.80292801 72.703125 6.93359375 C 71.84315918 7.48926025 70.98319336 8.04492676 70.09716797 8.61743164 C 69.15760254 9.2180542 68.21803711 9.81867676 67.25 10.4375 C 65.17407788 11.77802461 63.09858155 13.11920874 61.0234375 14.4609375 C 60.46959381 14.81819412 59.91575012 15.17545074 59.34512329 15.54353333 C 52.85549156 19.73121468 46.39769735 23.96729495 39.9413147 28.20599365 C 37.88080177 29.55869122 35.81968071 30.91045878 33.75854492 32.26220703 C 24.7804888 38.15393233 15.82995185 44.08484418 6.92724609 50.09008789 C 6.14816895 50.6133667 5.3690918 51.13664551 4.56640625 51.67578125 C 3.56009155 52.3550769 3.56009155 52.3550769 2.53344727 53.0480957 C 1 54 1 54 0 54 C 0 36.18 0 18.36 0 0 Z" stroke-linecap="round" />
</g>
		<g transform="matrix(1 0 0 1 -189.5 -141.05)"  >
<path style="stroke: none; stroke-width: 1; stroke-dasharray: none; stroke-linecap: butt; stroke-dashoffset: 0; stroke-linejoin: miter; stroke-miterlimit: 4; fill: rgb(66,72,155); fill-rule: nonzero; opacity: 1;" vector-effect="non-scaling-stroke"  transform=" translate(-28.16, -27.05)" d="M 0 0 C 1.09815285 -0.00021904 1.09815285 -0.00021904 2.2184906 -0.0004425 C 4.63169343 0.00025263 7.04481851 0.00802631 9.45800781 0.01586914 C 11.13380898 0.01773474 12.80961069 0.01915797 14.4854126 0.02015686 C 18.89127107 0.02397087 23.29709647 0.03379163 27.70294189 0.04486084 C 32.99182959 0.05689973 38.28072837 0.06148252 43.56962585 0.06731415 C 51.60015117 0.07700397 59.63060392 0.09616834 67.66113281 0.11352539 C 67.66113281 17.93352539 67.66113281 35.75352539 67.66113281 54.11352539 C 49.14113459 42.32807197 30.76290954 30.32994151 12.42089844 18.27001953 C 10.72035474 17.15244524 9.01888526 16.03628006 7.31738281 14.92016602 C 4.34528445 12.96880688 1.37745129 11.01115575 -1.58886719 9.05102539 C -2.46961914 8.47376709 -3.35037109 7.89650879 -4.2578125 7.30175781 C -5.45035645 6.51055542 -5.45035645 6.51055542 -6.66699219 5.70336914 C -7.35696289 5.24824951 -8.04693359 4.79312988 -8.7578125 4.32421875 C -10.33886719 3.11352539 -10.33886719 3.11352539 -11.33886719 1.11352539 C -7.58924661 -0.0855796 -3.89278683 -0.02037436 0 0 Z" stroke-linecap="round" />
</g>
		<g transform="matrix(1 0 0 1 -221 -38.99)"  >
<path style="stroke: none; stroke-width: 1; stroke-dasharray: none; stroke-linecap: butt; stroke-dashoffset: 0; stroke-linejoin: miter; stroke-miterlimit: 4; fill: rgb(67,73,156); fill-rule: nonzero; opacity: 1;" vector-effect="non-scaling-stroke"  transform=" translate(-35, -23)" d="M 0 0 C 23.1 0 46.2 0 70 0 C 64.37353748 4.50117001 64.37353748 4.50117001 61.65698242 6.31494141 C 61.04831833 6.72281891 60.43965424 7.13069641 59.81254578 7.55093384 C 59.16671036 7.9801413 58.52087494 8.40934875 57.85546875 8.8515625 C 57.16802078 9.31049896 56.48057281 9.76943542 55.77229309 10.24227905 C 54.316481 11.21327275 52.85989614 12.18310872 51.40258789 13.15185547 C 49.2302971 14.59653779 47.06126638 16.04601091 44.89257812 17.49609375 C 37.1468848 22.66209544 29.34041898 27.70709608 21.42874146 32.61523438 C 16.74121356 35.52501475 12.12186503 38.51749981 7.5625 41.625 C 1.13059701 46 1.13059701 46 0 46 C 0 30.82 0 15.64 0 0 Z" stroke-linecap="round" />
</g>
		<g transform="matrix(1 0 0 1 -221.5 -127.49)"  >
<path style="stroke: none; stroke-width: 1; stroke-dasharray: none; stroke-linecap: butt; stroke-dashoffset: 0; stroke-linejoin: miter; stroke-miterlimit: 4; fill: rgb(66,71,155); fill-rule: nonzero; opacity: 1;" vector-effect="non-scaling-stroke"  transform=" translate(-30.5, -21.5)" d="M 0 0 C 6.94581721 3.69614088 13.44863075 7.86391993 19.96325684 12.27139282 C 22.92669975 14.27557189 25.89820089 16.26768608 28.87109375 18.2578125 C 29.46934967 18.65831314 30.06760559 19.05881378 30.68399048 19.47145081 C 37.36028501 23.92776619 44.13358836 28.22920536 50.93237305 32.49584961 C 55.73827339 35.51995949 60.46147093 38.5838369 65 42 C 65 42.33 65 42.66 65 43 C 42.23 43 19.46 43 -4 43 C -4 11 -4 11 0 0 Z" stroke-linecap="round" />
</g>
		<g transform="matrix(1 0 0 1 -202.5 -30.89)"  >
<path style="stroke: none; stroke-width: 1; stroke-dasharray: none; stroke-linecap: butt; stroke-dashoffset: 0; stroke-linejoin: miter; stroke-miterlimit: 4; fill: rgb(254,80,90); fill-rule: nonzero; opacity: 1;" vector-effect="non-scaling-stroke"  transform=" translate(43.69, -31.22)" d="M 0 0 C 0.74958984 0.00902344 1.49917969 0.01804688 2.27148438 0.02734375 C 4.11862654 0.05087422 5.96560412 0.08674439 7.8125 0.125 C 4.67884701 3.55892932 1.20550359 5.88485352 -2.75 8.25 C -10.53450808 13.00389807 -18.11584889 18.04275508 -25.6875 23.125 C -33.46629628 28.34070459 -41.25739073 33.51200121 -49.23632812 38.41870117 C -56.28468304 42.76599643 -63.19765589 47.32086596 -70.12207031 51.86206055 C -72.80716688 53.62162305 -75.49640017 55.37463661 -78.1875 57.125 C -78.96246826 57.63401855 -79.73743652 58.14303711 -80.53588867 58.66748047 C -81.2394751 59.1213916 -81.94306152 59.57530273 -82.66796875 60.04296875 C -83.27278076 60.43637451 -83.87759277 60.82978027 -84.50073242 61.23510742 C -87.18598648 62.65177424 -89.24800353 62.67188306 -92.1875 62.125 C -94.0625 60.625 -94.0625 60.625 -95.1875 59.125 C -93.85106759 55.97798426 -92.67138964 54.46722924 -89.75 52.70703125 C -88.67504272 52.04586304 -88.67504272 52.04586304 -87.57836914 51.37133789 C -86.78938232 50.89817139 -86.00039551 50.42500488 -85.1875 49.9375 C -83.45566873 48.87200311 -81.72527874 47.80416117 -79.99609375 46.734375 C -79.0613623 46.15751953 -78.12663086 45.58066406 -77.16357422 44.98632812 C -71.80576784 41.63539164 -66.53156237 38.15688721 -61.25 34.6875 C -60.1323317 33.9545357 -59.01457449 33.22170696 -57.89672852 32.48901367 C -55.6995265 31.04877799 -53.50250159 29.60827206 -51.30566406 28.16748047 C -46.75207834 25.1847606 -42.18986928 22.2154138 -37.625 19.25 C -36.82787598 18.73211914 -36.03075195 18.21423828 -35.20947266 17.68066406 C -28.97004678 13.62922262 -22.72504969 9.58639019 -16.47631836 5.54931641 C -10.45754877 1.65948899 -7.18878669 -0.16323882 0 0 Z" stroke-linecap="round" />
</g>
		<g transform="matrix(1 0 0 1 -53 -136.73)"  >
<path style="stroke: none; stroke-width: 1; stroke-dasharray: none; stroke-linecap: butt; stroke-dashoffset: 0; stroke-linejoin: miter; stroke-miterlimit: 4; fill: rgb(254,79,89); fill-rule: nonzero; opacity: 1;" vector-effect="non-scaling-stroke"  transform=" translate(49, -30.26)" d="M 0 0 C 1.70043945 2.06494141 1.70043945 2.06494141 3 4 C 1.77604167 4.79557292 0.55208333 5.59114583 -0.671875 6.38671875 C -1.47133545 6.90637207 -2.2707959 7.42602539 -3.09448242 7.96142578 C -4.88890119 9.12778973 -6.68333518 10.29413028 -8.4777832 11.46044922 C -13.04673501 14.43012883 -17.61548584 17.40011615 -22.18359375 20.37109375 C -30.63401438 25.86649457 -39.08835852 31.35563932 -47.55395508 36.82763672 C -52.29065717 39.8905001 -57.02151323 42.9622014 -61.74707031 46.04223633 C -63.48545975 47.17193107 -65.22696064 48.29685364 -66.97167969 49.41674805 C -70.44879511 51.65247226 -73.84837852 53.88543737 -77.1484375 56.37890625 C -84.83874176 62.09467293 -91.79920311 61.72729009 -101 61 C -97.29434873 57.94543512 -93.4427878 55.20365236 -89.4375 52.5625 C -88.47336182 51.92332642 -88.47336182 51.92332642 -87.48974609 51.27124023 C -75.19886835 43.14274515 -62.8084496 35.16479884 -50.43408203 27.16430664 C -45.8035186 24.16974582 -41.17738758 21.16845767 -36.55541992 18.16064453 C -34.86191976 17.0601202 -33.16678595 15.96210537 -31.4699707 14.86669922 C -27.33993971 12.19680451 -23.24355018 9.49363361 -19.19921875 6.6953125 C -18.43802734 6.17775391 -17.67683594 5.66019531 -16.89257812 5.12695312 C -15.46496211 4.15455568 -14.0474329 3.16711054 -12.64257812 2.16210938 C -8.17534117 -0.85046952 -5.40315939 -1.75059732 0 0 Z" stroke-linecap="round" />
</g>
		<g transform="matrix(1 0 0 1 -49.02 -31.69)"  >
<path style="stroke: none; stroke-width: 1; stroke-dasharray: none; stroke-linecap: butt; stroke-dashoffset: 0; stroke-linejoin: miter; stroke-miterlimit: 4; fill: rgb(254,80,89); fill-rule: nonzero; opacity: 1;" vector-effect="non-scaling-stroke"  transform=" translate(-48.98, -30.3)" d="M 0 0 C 12.21339347 -1.44442236 19.01843861 0.97175673 28.72021484 8.33984375 C 33.23833006 11.62996834 38.02146814 14.52473989 42.75 17.5 C 53.13944978 24.10793735 63.40846799 30.88097888 73.62744141 37.74853516 C 78.30893422 40.8904535 82.98484507 44.02534766 87.77734375 46.99609375 C 88.44548096 47.41125244 89.11361816 47.82641113 89.80200195 48.25415039 C 91.45741176 49.27196028 93.12271774 50.27363064 94.7890625 51.2734375 C 97 53 97 53 97.95703125 55.0859375 C 98 57 98 57 96.0625 59.25 C 95.381875 59.8275 94.70125 60.405 94 61 C 90.34973351 59.6527176 87.22472003 58.00891235 83.95703125 55.90234375 C 82.97863281 55.27416748 82.00023437 54.64599121 80.9921875 53.9987793 C 79.94289063 53.31855713 78.89359375 52.63833496 77.8125 51.9375 C 76.71550781 51.23085205 75.61851562 50.5242041 74.48828125 49.79614258 C 64.27851159 43.21393875 54.11590183 36.55880764 43.95703125 29.8984375 C 39.04770409 26.68131413 34.12240816 23.49017791 29.1875 20.3125 C 22.57486249 16.04433555 15.99834787 11.72232457 9.4375 7.375 C 8.03310669 6.44941284 8.03310669 6.44941284 6.6003418 5.50512695 C 5.74093994 4.93366943 4.88153809 4.36221191 3.99609375 3.7734375 C 3.22450928 3.26216309 2.4529248 2.75088867 1.65795898 2.22412109 C 1.11083252 1.82016113 0.56370605 1.41620117 0 1 C 0 0.67 0 0.34 0 0 Z" stroke-linecap="round" />
</g>
		<g transform="matrix(1 0 0 1 -204 -132.7)"  >
<path style="stroke: none; stroke-width: 1; stroke-dasharray: none; stroke-linecap: butt; stroke-dashoffset: 0; stroke-linejoin: miter; stroke-miterlimit: 4; fill: rgb(254,79,89); fill-rule: nonzero; opacity: 1;" vector-effect="non-scaling-stroke"  transform=" translate(-38, -27.29)" d="M 0 0 C 0.91265625 0.58394531 0.91265625 0.58394531 1.84375 1.1796875 C 6.60374938 4.21768711 11.37343342 7.23426939 16.17553711 10.20532227 C 26.46272331 16.58207335 36.57196903 23.22914131 46.69140625 29.8671875 C 51.90557909 33.28711048 57.13445802 36.6831702 62.375 40.0625 C 67.28187718 43.23317964 72.1853041 46.40879349 77.0625 49.625 C 78.02285156 50.25664062 78.98320313 50.88828125 79.97265625 51.5390625 C 80.64167969 52.02117187 81.31070313 52.50328125 82 53 C 82 53.33 82 53.66 82 54 C 68.85352802 56.14823634 61.67155553 52.21868111 51.140625 44.70703125 C 49.86541992 43.78011475 49.86541992 43.78011475 48.56445312 42.83447266 C 44.47231175 39.9071735 40.23517837 37.21406978 36 34.5 C 34.34299064 33.42434595 32.6867423 32.34751868 31.03125 31.26953125 C 27.59499763 29.03583277 24.15731816 26.80435049 20.71875 24.57421875 C 11.77482759 18.77129694 2.84617332 12.95138896 -6 7 C -4.19587357 3.73539027 -3.16605307 2.11070205 0 0 Z" stroke-linecap="round" />
</g>
		<g transform="matrix(1 0 0 1 205.5 -42.99)"  >
<path style="stroke: none; stroke-width: 1; stroke-dasharray: none; stroke-linecap: butt; stroke-dashoffset: 0; stroke-linejoin: miter; stroke-miterlimit: 4; fill: rgb(237,237,241); fill-rule: nonzero; opacity: 1;" vector-effect="non-scaling-stroke"  transform=" translate(-1.5, -19)" d="M 0 0 C 0.66 0 1.32 0 2 0 C 2.50367757 1.45706726 3.00282556 2.91570096 3.5 4.375 C 3.7784375 5.18710938 4.056875 5.99921875 4.34375 6.8359375 C 5 9 5 9 5 11 C 5.53109375 10.77183594 6.0621875 10.54367188 6.609375 10.30859375 C 7.31578125 10.02113281 8.0221875 9.73367187 8.75 9.4375 C 9.44609375 9.14746094 10.1421875 8.85742188 10.859375 8.55859375 C 13 8 13 8 17 9 C 15.02 12.3 13.04 15.6 11 19 C 13.475 19.99 13.475 19.99 16 21 C 17.6829392 21.97236487 19.35443434 22.96564444 21 24 C 20.67 24.66 20.34 25.32 20 26 C 16.37 26 12.74 26 9 26 C 9.33 29.96 9.66 33.92 10 38 C 6.43688534 36.21844267 4.64354525 34.83236991 2 32 C -0.56490126 33.0992434 -2.12843192 34.12843192 -4.125 36.125 C -5.053125 37.053125 -5.053125 37.053125 -6 38 C -6.66 38 -7.32 38 -8 38 C -7.67 34.04 -7.34 30.08 -7 26 C -10.63 26 -14.26 26 -18 26 C -18 25.01 -18 24.02 -18 23 C -11.25 19 -11.25 19 -9 19 C -10.98 15.37 -12.96 11.74 -15 8 C -10.64193667 8.72634389 -7.09270163 9.53832085 -3 11 C -2.01 7.37 -1.02 3.74 0 0 Z" stroke-linecap="round" />
</g>
		<g transform="matrix(1 0 0 1 136.5 -89.99)"  >
<path style="stroke: none; stroke-width: 1; stroke-dasharray: none; stroke-linecap: butt; stroke-dashoffset: 0; stroke-linejoin: miter; stroke-miterlimit: 4; fill: rgb(237,237,241); fill-rule: nonzero; opacity: 1;" vector-effect="non-scaling-stroke"  transform=" translate(-0.5, -19)" d="M 0 0 C 0.66 0.33 1.32 0.66 2 1 C 2.6328125 3.28515625 2.6328125 3.28515625 3.125 6.0625 C 3.29257812 6.98160156 3.46015625 7.90070313 3.6328125 8.84765625 C 3.75398438 9.55792969 3.87515625 10.26820313 4 11 C 4.69867188 10.71125 5.39734375 10.4225 6.1171875 10.125 C 7.02726562 9.75375 7.93734375 9.3825 8.875 9 C 9.77992188 8.62875 10.68484375 8.2575 11.6171875 7.875 C 14 7 14 7 16 7 C 15.32902328 11.19360449 13.1441606 14.40334352 11 18 C 15.455 20.97 15.455 20.97 20 24 C 19.67 24.66 19.34 25.32 19 26 C 15.37 26 11.74 26 8 26 C 8.33 26.99 8.66 27.98 9 29 C 9.06740865 30.56118428 9.08514456 32.1250252 9.0625 33.6875 C 9.05347656 34.49574219 9.04445313 35.30398437 9.03515625 36.13671875 C 9.02355469 36.75160156 9.01195312 37.36648437 9 38 C 8.34 38 7.68 38 7 38 C 5.4921875 36.46875 5.4921875 36.46875 3.875 34.5 C 3.33617187 33.8503125 2.79734375 33.200625 2.2421875 32.53125 C 1.83226562 32.0259375 1.42234375 31.520625 1 31 C 0.52949219 31.42152344 0.05898438 31.84304687 -0.42578125 32.27734375 C -1.04839844 32.82519531 -1.67101562 33.37304688 -2.3125 33.9375 C -2.92738281 34.48277344 -3.54226563 35.02804688 -4.17578125 35.58984375 C -6 37 -6 37 -9 38 C -8.67 34.04 -8.34 30.08 -8 26 C -11.63 26 -15.26 26 -19 26 C -19 25.01 -19 24.02 -19 23 C -12.25 19 -12.25 19 -10 19 C -11.53604696 15.85808576 -13.05731159 12.91403262 -15 10 C -15 9.01 -15 8.02 -15 7 C -9.555 8.485 -9.555 8.485 -4 10 C -3.525625 8.535625 -3.05125 7.07125 -2.5625 5.5625 C -1.125 1.125 -1.125 1.125 0 0 Z" stroke-linecap="round" />
</g>
		<g transform="matrix(1 0 0 1 136.5 99.01)"  >
<path style="stroke: none; stroke-width: 1; stroke-dasharray: none; stroke-linecap: butt; stroke-dashoffset: 0; stroke-linejoin: miter; stroke-miterlimit: 4; fill: rgb(238,238,241); fill-rule: nonzero; opacity: 1;" vector-effect="non-scaling-stroke"  transform=" translate(-1.5, -19)" d="M 0 0 C 0.99 0 1.98 0 3 0 C 3.66 3.3 4.32 6.6 5 10 C 7.1346875 9.2575 7.1346875 9.2575 9.3125 8.5 C 12.13135886 7.51952735 13.98509443 7 17 7 C 15.54955729 11.10958767 13.48889248 14.43258745 11 18 C 11.721875 18.268125 12.44375 18.53625 13.1875 18.8125 C 15.99766383 19.99901362 18.48416557 21.27485639 21 23 C 21 23.66 21 24.32 21 25 C 17.04 25 13.08 25 9 25 C 9.33 26.32 9.66 27.64 10 29 C 10.06548492 30.58211573 10.08578381 32.16670081 10.0625 33.75 C 10.05347656 34.54921875 10.04445313 35.3484375 10.03515625 36.171875 C 10.02355469 36.77515625 10.01195312 37.3784375 10 38 C 8.8274869 37.04882866 7.66212985 36.08882991 6.5 35.125 C 5.8503125 34.59132813 5.200625 34.05765625 4.53125 33.5078125 C 4.0259375 33.01023437 3.520625 32.51265625 3 32 C 3 31.34 3 30.68 3 30 C -1.01232741 32.11761724 -3.22277079 34.4566386 -6 38 C -6.66 38 -7.32 38 -8 38 C -7.85851011 36.3954444 -7.71164314 34.79136233 -7.5625 33.1875 C -7.48128906 32.29417969 -7.40007812 31.40085937 -7.31640625 30.48046875 C -7 28 -7 28 -6 25 C -9.96 25 -13.92 25 -18 25 C -16.5361389 20.60841671 -14.02168662 20.12052567 -10 18 C -10.45487191 15.4527173 -10.97953003 14.02702035 -12.5625 11.9375 C -14 10 -14 10 -14 7 C -10.37 7.66 -6.74 8.32 -3 9 C -2.01 6.03 -1.02 3.06 0 0 Z" stroke-linecap="round" />
</g>
		<g transform="matrix(1 0 0 1 63.5 -6.99)"  >
<path style="stroke: none; stroke-width: 1; stroke-dasharray: none; stroke-linecap: butt; stroke-dashoffset: 0; stroke-linejoin: miter; stroke-miterlimit: 4; fill: rgb(238,239,241); fill-rule: nonzero; opacity: 1;" vector-effect="non-scaling-stroke"  transform=" translate(-0.5, -19)" d="M 0 0 C 0.66 0 1.32 0 2 0 C 2.99 2.97 3.98 5.94 5 9 C 8.8955448 9 9.7780451 8.66294447 13 7 C 13.99 7 14.98 7 16 7 C 15.38545304 10.99455527 13.29353263 13.74466336 11 17 C 11.6496875 17.40992188 12.299375 17.81984375 12.96875 18.2421875 C 13.8040625 18.78101563 14.639375 19.31984375 15.5 19.875 C 16.3353125 20.40867188 17.170625 20.94234375 18.03125 21.4921875 C 19.00578125 22.23855469 19.00578125 22.23855469 20 23 C 20 23.66 20 24.32 20 25 C 16.37 25.33 12.74 25.66 9 26 C 9.33 29.96 9.66 33.92 10 38 C 5.9915966 35.9957983 4.58590343 34.50944037 2 31 C -1.94139078 32.66751148 -4.7892812 35.22710649 -8 38 C -8.07972012 33.2965127 -7.93491183 29.67455917 -7 25 C -10.96 25 -14.92 25 -19 25 C -19 24.34 -19 23.68 -19 23 C -14.545 20.525 -14.545 20.525 -10 18 C -11.25756667 14.51750769 -12.7731892 11.93534151 -15 9 C -15 8.34 -15 7.68 -15 7 C -10.61110675 7.66498383 -7.0188515 9.18757677 -3 11 C -2.87625 9.9275 -2.7525 8.855 -2.625 7.75 C -2.10356064 4.62136385 -1.59911746 2.66519576 0 0 Z" stroke-linecap="round" />
</g>
		<g transform="matrix(1 0 0 1 163.5 5.51)"  >
<path style="stroke: none; stroke-width: 1; stroke-dasharray: none; stroke-linecap: butt; stroke-dashoffset: 0; stroke-linejoin: miter; stroke-miterlimit: 4; fill: rgb(232,232,238); fill-rule: nonzero; opacity: 1;" vector-effect="non-scaling-stroke"  transform=" translate(-1.5, -12.5)" d="M 0 0 C 0.99 0 1.98 0 3 0 C 3.66 2.64 4.32 5.28 5 8 C 7.97 8 10.94 8 14 8 C 13.67 9.32 13.34 10.64 13 12 C 12.29875 12.391875 11.5975 12.78375 10.875 13.1875 C 8.74558719 14.81886469 8.74558719 14.81886469 8.9609375 17.1875 C 9.22612381 19.48100318 9.56282683 21.73335217 10 24 C 7.03824877 23.38722388 5.61941217 22.74627478 3 21 C -0.40965687 21.32996679 -2.34154443 22.96185073 -5 25 C -5.66 25 -6.32 25 -7 25 C -6.86980469 24.32453125 -6.73960937 23.6490625 -6.60546875 22.953125 C -6.1854699 20.23687073 -5.87880702 17.74848354 -6 15 C -8.30068019 12.50789479 -8.30068019 12.50789479 -11 11 C -11 10.01 -11 9.02 -11 8 C -8.03 8 -5.06 8 -2 8 C -1.34 5.36 -0.68 2.72 0 0 Z" stroke-linecap="round" />
</g>
		<g transform="matrix(1 0 0 1 -244 -155.99)"  >
<path style="stroke: none; stroke-width: 1; stroke-dasharray: none; stroke-linecap: butt; stroke-dashoffset: 0; stroke-linejoin: miter; stroke-miterlimit: 4; fill: rgb(227,111,131); fill-rule: nonzero; opacity: 1;" vector-effect="non-scaling-stroke"  transform=" translate(2, -4)" d="M 0 0 C 0.66 0.66 1.32 1.32 2 2 C 0.824375 2.928125 0.824375 2.928125 -0.375 3.875 C -2.96837647 5.89858661 -2.96837647 5.89858661 -5 8 C -5.33 7.34 -5.66 6.68 -6 6 C -2.25 1.125 -2.25 1.125 0 0 Z" stroke-linecap="round" />
</g>
</g>
</g>
</svg>