<svg width="87" height="66" viewBox="0 0 87 66" fill="none" xmlns="http://www.w3.org/2000/svg">
<mask id="mask0_502_119" style="mask-type:luminance" maskUnits="userSpaceOnUse" x="0" y="0" width="87" height="66">
<path d="M0 0.5H86.28V65.21H0V0.5Z" fill="white"/>
</mask>
<g mask="url(#mask0_502_119)">
<path fill-rule="evenodd" clip-rule="evenodd" d="M21.57 0.5H64.71V65.21H21.57V0.5Z" fill="#F7FCFF"/>
<path fill-rule="evenodd" clip-rule="evenodd" d="M43.0764 19.3738L43.14 51.7288H41.5236L42.5153 43.7217C35.2621 45.027 31.9352 45.3503 32.5348 44.6921C33.1345 44.0337 33.6071 43.1008 33.9525 41.8931L24.2662 35.4308C25.2849 35.4181 26.2085 35.1652 27.0372 34.6723C27.8657 34.1794 27.4516 32.4716 25.7941 29.5486L30.6847 30.2602L32.5348 28.2493L36.2246 32.1111H37.8831L36.2246 23.2656L39.1975 24.9262L43.0764 19.3738ZM43.0764 19.3738L47.0824 24.9262L50.0553 23.2656L48.3969 32.1111H50.0553L53.7451 28.2493L55.5953 30.2602L60.4858 29.5486C58.8284 32.4716 58.4142 34.1794 59.2428 34.6723C60.0714 35.1652 60.9951 35.4181 62.0137 35.4308L52.3275 41.8931C52.6728 43.1008 53.1455 44.0337 53.7451 44.6921C54.3448 45.3503 51.0179 45.027 43.7647 43.7217L44.7564 51.7288H43.14L43.0764 19.3738Z" fill="#E31D1C"/>
<path fill-rule="evenodd" clip-rule="evenodd" d="M64.71 0.5H86.28V65.21H64.71V0.5Z" fill="#E31D1C"/>
<path fill-rule="evenodd" clip-rule="evenodd" d="M0 0.5H21.57V65.21H0V0.5Z" fill="#E31D1C"/>
</g>
</svg>
