<?xml version="1.0" encoding="UTF-8" standalone="no" ?>
<!DOCTYPE svg PUBLIC "-//W3C//DTD SVG 1.1//EN" "http://www.w3.org/Graphics/SVG/1.1/DTD/svg11.dtd">
<svg xmlns="http://www.w3.org/2000/svg" xmlns:xlink="http://www.w3.org/1999/xlink" version="1.1" width="910" height="600" viewBox="19.94 55.38 910 600" xml:space="preserve">
<desc>Created with Fabric.js 5.2.4</desc>
<defs>
</defs>
<rect x="0" y="0" width="100%" height="100%" fill="transparent"></rect>
<g transform="matrix(1 0 0 1 455 300)" id="184a5578-b77f-4df0-8514-6c934dd087f5"  >
<rect style="stroke: none; stroke-width: 1; stroke-dasharray: none; stroke-linecap: butt; stroke-dashoffset: 0; stroke-linejoin: miter; stroke-miterlimit: 4; fill: rgb(255,255,255); fill-rule: nonzero; opacity: 1; visibility: hidden;" vector-effect="non-scaling-stroke"  x="-455" y="-300" rx="0" ry="0" width="910" height="600" />
</g>
<g transform="matrix(Infinity NaN NaN Infinity 0 0)" id="444fdd5e-c227-431f-a777-aa47d00a18d4"  >
</g>
<g transform="matrix(1.48 0 0 1.48 479.67 355.38)"  >
<g style="" vector-effect="non-scaling-stroke"   >
		<g transform="matrix(1 0 0 1 -3.73 0)"  >
<path style="stroke: none; stroke-width: 1; stroke-dasharray: none; stroke-linecap: butt; stroke-dashoffset: 0; stroke-linejoin: miter; stroke-miterlimit: 4; fill: rgb(244,244,244); fill-rule: nonzero; opacity: 1;" vector-effect="non-scaling-stroke"  transform=" translate(-206.55, -168.58)" d="M 0 0 C 1.85796948 -0.00461485 3.71593529 -0.01097167 5.57389355 -0.01890898 C 10.65442257 -0.03554515 15.7346495 -0.02738193 20.81517935 -0.0149641 C 26.30402221 -0.00589252 31.79281408 -0.0198938 37.28164673 -0.03088379 C 48.02439246 -0.04865107 58.76702627 -0.04483697 69.50977635 -0.03323323 C 78.2422345 -0.02419215 86.97466132 -0.02297783 95.7071228 -0.02732849 C 96.95094481 -0.02794142 98.19476681 -0.02855436 99.47628039 -0.02918586 C 102.00324322 -0.03046479 104.53020603 -0.03176164 107.05716884 -0.03307623 C 130.06619019 -0.04415192 153.07516202 -0.03267463 176.08417122 -0.01170584 C 197.07185317 0.00727545 218.05943803 0.00557689 239.04711914 -0.0135498 C 262.6474587 -0.0349858 286.24775694 -0.04337819 309.84810734 -0.03110075 C 312.36566733 -0.02982658 314.88322734 -0.0285691 317.40078735 -0.02732849 C 319.25871919 -0.02640284 319.25871919 -0.02640284 321.154185 -0.02545848 C 329.87407403 -0.02200777 338.59392857 -0.02782795 347.31381226 -0.0372467 C 357.9434197 -0.04847608 368.57290902 -0.04540679 379.20250297 -0.02412373 C 384.62375243 -0.01362607 390.04480509 -0.00946972 395.46605301 -0.02272034 C 400.43287476 -0.03467646 405.39931805 -0.02802853 410.36610568 -0.00681013 C 412.15867701 -0.00235772 413.9512806 -0.00457958 415.74383104 -0.01431328 C 429.16371376 -0.08157025 440.69958268 1.02141105 451.29223633 10.16418457 C 460.80665833 20.02368924 462.85587096 29.55420319 462.82810974 42.74319458 C 462.83334642 43.97479699 462.8385831 45.20639939 462.84397846 46.47532308 C 462.85636201 49.88179442 462.85982264 53.28805906 462.85938156 56.69453859 C 462.8610337 60.37281957 462.87410715 64.0510633 462.88557434 67.72932434 C 462.90838715 75.76411276 462.91634005 83.79887471 462.92140079 91.83369112 C 462.92466032 96.85052031 462.93118411 101.86734186 462.93840218 106.88416672 C 462.95795858 120.77623306 462.97436996 134.66829231 462.97727871 148.56037331 C 462.97746628 149.44862064 462.97765385 150.33686797 462.9778471 151.25203189 C 462.97821335 153.05265419 462.97857705 154.85327649 462.97893821 156.65389879 C 462.97912103 157.54771302 462.97930384 158.44152725 462.97949219 159.36242676 C 462.97976301 160.70478423 462.97976301 160.70478423 462.98003931 162.07426004 C 462.98358478 176.59108879 463.01063472 191.10776957 463.04799008 205.62454696 C 463.08604089 220.53079424 463.10543592 235.43696799 463.10573822 250.34326494 C 463.10632331 258.71200683 463.11484896 267.08057189 463.14373589 275.44926834 C 463.16820599 282.57095822 463.17556199 289.6924067 463.16048836 296.81412722 C 463.15330292 300.44830019 463.15424648 304.08199602 463.17689896 307.71611595 C 463.2012053 311.6531715 463.18689989 315.58954079 463.16868591 319.52664185 C 463.18188588 320.67847824 463.19508585 321.83031463 463.20868582 323.01705515 C 463.19749718 324.07119557 463.18630854 325.12533599 463.17478085 326.21142006 C 463.1755953 327.1200935 463.17640976 328.02876695 463.1772489 328.96497595 C 462.24531256 332.76715637 460.68244904 334.19640669 457.55395508 336.50793457 C 454.54878855 336.99918061 452.11338663 337.1815561 449.11276245 337.13714027 C 447.83501021 337.14804108 447.83501021 337.14804108 446.53144479 337.1591621 C 443.66334057 337.17747939 440.79656233 337.16002559 437.9284668 337.14285278 C 435.85705822 337.1486113 433.78565475 337.1565506 431.71426201 337.16648901 C 426.0114835 337.18742237 420.30912166 337.17701754 414.60634136 337.16155791 C 408.46037108 337.15027491 402.31447395 337.16769195 396.16851807 337.18145752 C 384.82095276 337.20243909 373.47355788 337.20057415 362.12599677 337.18690018 C 351.6436149 337.17433052 341.1612819 337.17103508 330.67889404 337.1770134 C 329.6365789 337.17758629 329.6365789 337.17758629 328.57320689 337.17817075 C 325.75259209 337.1797274 322.93197731 337.18131939 320.11136257 337.18296957 C 293.64293286 337.19827024 267.17458809 337.18438831 240.70617148 337.15748508 C 217.18207989 337.1337564 193.65812362 337.13587951 170.1340332 337.15979004 C 143.7145308 337.18655368 117.29510345 337.19718519 90.87558937 337.18172872 C 88.06006497 337.18012509 85.24454055 337.1785609 82.42901611 337.1770134 C 81.38910823 337.17642032 81.38910823 337.17642032 80.3281921 337.17581526 C 69.85148494 337.17012394 59.37483198 337.17678659 48.89813232 337.18941116 C 36.98758645 337.20369183 25.07720044 337.19968439 13.16666079 337.17300744 C 7.08606421 337.15983854 1.00574274 337.15476937 -5.07485199 337.1712532 C -10.63624501 337.18610187 -16.19710672 337.1780484 -21.75845122 337.15136544 C -23.77519571 337.14575889 -25.79198467 337.14866924 -27.8087008 337.16074438 C -30.54139769 337.17585717 -33.27225306 337.16045272 -36.00485229 337.13714027 C -36.7956694 337.1488461 -37.58648651 337.16055194 -38.40126777 337.17261249 C -42.31042966 337.10553746 -44.25953913 336.64579645 -47.43446869 334.29894304 C -49.63781418 331.24185983 -50.07135348 329.93290315 -50.07245731 326.22259331 C -50.08487935 325.17091968 -50.09730139 324.11924606 -50.11009985 323.03570354 C -50.09234626 321.31204167 -50.09234626 321.31204167 -50.07423401 319.55355835 C -50.0813284 318.32789819 -50.08842278 317.10223803 -50.09573215 315.83943665 C -50.11029455 312.43959861 -50.10241267 309.04115231 -50.08500922 305.64141607 C -50.07164607 301.97387225 -50.08706889 298.30643435 -50.09883118 294.63890076 C -50.11722341 287.45352468 -50.10868358 280.26842032 -50.09074295 273.08305268 C -50.07671847 267.24037828 -50.07282383 261.39777766 -50.07618523 255.55508804 C -50.07666267 254.72355771 -50.07714011 253.89202738 -50.07763202 253.03529916 C -50.07865836 251.34599286 -50.07971372 249.65668657 -50.08079778 247.9673803 C -50.08936888 233.02283626 -50.0726802 218.07842328 -50.04296875 203.13391113 C -50.01416148 188.64394619 -50.00703252 174.15417028 -50.02246094 159.66418457 C -50.039242 143.88225251 -50.04323548 128.10041027 -50.02575058 112.31847584 C -50.02390624 110.63354247 -50.02207152 108.94860908 -50.02024651 107.26367569 C -50.01933442 106.43470127 -50.01842233 105.60572685 -50.0174826 104.751632 C -50.01188664 98.92177644 -50.01517589 93.09196483 -50.02179146 87.26211166 C -50.02954317 80.14859228 -50.02270717 73.03525866 -49.99761642 65.92177658 C -49.98516014 62.29505927 -49.97892713 58.66863054 -49.99015808 55.04190254 C -50.00212629 51.10249607 -49.98286292 47.16358252 -49.96070862 43.22421265 C -49.96894939 42.08848906 -49.97719015 40.95276548 -49.98568064 39.78262603 C -49.85824493 27.47102807 -45.92112206 18.38505522 -37.44604492 9.50793457 C -27.26216363 -0.31481618 -13.19353167 -0.07164203 0 0 Z" stroke-linecap="round" />
</g>
		<g transform="matrix(1 0 0 1 0.33 -84.34)"  >
<path style="stroke: none; stroke-width: 1; stroke-dasharray: none; stroke-linecap: butt; stroke-dashoffset: 0; stroke-linejoin: miter; stroke-miterlimit: 4; fill: rgb(254,75,85); fill-rule: nonzero; opacity: 1;" vector-effect="non-scaling-stroke"  transform=" translate(-210.61, -84.23)" d="M 0 0 C 1.85796948 -0.00461485 3.71593529 -0.01097167 5.57389355 -0.01890898 C 10.65442257 -0.03554515 15.7346495 -0.02738193 20.81517935 -0.0149641 C 26.30402221 -0.00589252 31.79281408 -0.0198938 37.28164673 -0.03088379 C 48.02439246 -0.04865107 58.76702627 -0.04483697 69.50977635 -0.03323323 C 78.2422345 -0.02419215 86.97466132 -0.02297783 95.7071228 -0.02732849 C 96.95094481 -0.02794142 98.19476681 -0.02855436 99.47628039 -0.02918586 C 102.00324322 -0.03046479 104.53020603 -0.03176164 107.05716884 -0.03307623 C 130.06619019 -0.04415192 153.07516202 -0.03267463 176.08417122 -0.01170584 C 197.07185317 0.00727545 218.05943803 0.00557689 239.04711914 -0.0135498 C 262.6474587 -0.0349858 286.24775694 -0.04337819 309.84810734 -0.03110075 C 312.36566733 -0.02982658 314.88322734 -0.0285691 317.40078735 -0.02732849 C 319.25871919 -0.02640284 319.25871919 -0.02640284 321.154185 -0.02545848 C 329.87407403 -0.02200777 338.59392857 -0.02782795 347.31381226 -0.0372467 C 357.9434197 -0.04847608 368.57290902 -0.04540679 379.20250297 -0.02412373 C 384.62375243 -0.01362607 390.04480509 -0.00946972 395.46605301 -0.02272034 C 400.43287476 -0.03467646 405.39931805 -0.02802853 410.36610568 -0.00681013 C 412.15867701 -0.00235772 413.9512806 -0.00457958 415.74383104 -0.01431328 C 429.16371376 -0.08157025 440.69958268 1.02141105 451.29223633 10.16418457 C 486.86665405 47.02886615 462.55395508 159.35496598 462.55395508 168.50793457 C 293.59395508 168.50793457 124.63395508 168.50793457 -49.44604492 168.50793457 C -49.44604492 22.07719453 -49.44604492 22.07719453 -37.44604492 9.50793457 C -27.26216363 -0.31481618 -13.19353167 -0.07164203 0 0 Z" stroke-linecap="round" />
</g>
		<g transform="matrix(1 0 0 1 -175.21 -83.58)"  >
<path style="stroke: none; stroke-width: 1; stroke-dasharray: none; stroke-linecap: butt; stroke-dashoffset: 0; stroke-linejoin: miter; stroke-miterlimit: 4; fill: rgb(245,242,242); fill-rule: nonzero; opacity: 1;" vector-effect="non-scaling-stroke"  transform=" translate(23.17, -61.67)" d="M 0 0 C 1.03189453 0.00064453 2.06378906 0.00128906 3.12695312 0.00195312 C 11.41791907 0.05037538 11.41791907 0.05037538 15.3125 1.1875 C 14.9825 2.1775 14.6525 3.1675 14.3125 4.1875 C 11.57421875 5.109375 11.57421875 5.109375 8 5.9375 C -6.68307922 9.87686272 -18.37406615 18.37256903 -26.1875 31.44921875 C -31.43747307 41.03315397 -34.03103503 49.65801715 -33.9375 60.625 C -33.94523437 61.52798828 -33.95296875 62.43097656 -33.9609375 63.36132812 C -33.91665583 78.6495751 -27.89357419 91.49612034 -17.5078125 102.49609375 C -8.31488575 111.43282418 2.84191925 116.5152327 15.3125 119.1875 C 14.8175 120.6725 14.8175 120.6725 14.3125 122.1875 C -3.14021249 124.95633085 -19.30202358 123.4609243 -34.1640625 113.12890625 C -46.05305513 103.98211161 -53.67242896 94.40625947 -58.6875 80.1875 C -59.05359375 79.16269531 -59.4196875 78.13789063 -59.796875 77.08203125 C -62.88898734 63.56082072 -62.5308674 47.42590308 -55.6875 35.1875 C -55.01847656 33.88039063 -55.01847656 33.88039063 -54.3359375 32.546875 C -45.75257155 16.91459959 -32.09644349 7.04042154 -15.58984375 1.06640625 C -10.48596418 -0.34031674 -5.25157757 -0.0630322 0 0 Z" stroke-linecap="round" />
</g>
		<g transform="matrix(1 0 0 1 -136.72 -56.57)"  >
<path style="stroke: none; stroke-width: 1; stroke-dasharray: none; stroke-linecap: butt; stroke-dashoffset: 0; stroke-linejoin: miter; stroke-miterlimit: 4; fill: rgb(245,236,237); fill-rule: nonzero; opacity: 1;" vector-effect="non-scaling-stroke"  transform=" translate(-1, -12.5)" d="M 0 0 C 0.99 0.33 1.98 0.66 3 1 C 4.03131735 3.60862624 4.43057449 6.24047635 5 9 C 7.97 9 10.94 9 14 9 C 12.86280581 12.41158256 11.95657056 13.11854601 9 15 C 8.34 15 7.68 15 7 15 C 7.495 16.093125 7.99 17.18625 8.5 18.3125 C 10 22 10 22 10 25 C 6.64404172 24.40072174 4.62198774 23.15377564 2 21 C 1.443125 21.28875 0.88625 21.5775 0.3125 21.875 C -2.08494645 23.0413253 -4.51596939 24.0339881 -7 25 C -6.67 21.7 -6.34 18.4 -6 15 C -6.99 14.38125 -7.98 13.7625 -9 13.125 C -9.99 12.42375 -10.98 11.7225 -12 11 C -12 10.34 -12 9.68 -12 9 C -8.7 9 -5.4 9 -2 9 C -1.855625 7.88625 -1.71125 6.7725 -1.5625 5.625 C -1 2 -1 2 0 0 Z" stroke-linecap="round" />
</g>
		<g transform="matrix(1 0 0 1 -148.72 -95.57)"  >
<path style="stroke: none; stroke-width: 1; stroke-dasharray: none; stroke-linecap: butt; stroke-dashoffset: 0; stroke-linejoin: miter; stroke-miterlimit: 4; fill: rgb(245,237,238); fill-rule: nonzero; opacity: 1;" vector-effect="non-scaling-stroke"  transform=" translate(-1, -12.5)" d="M 0 0 C 0.99 0.33 1.98 0.66 3 1 C 4.03131735 3.60862624 4.43057449 6.24047635 5 9 C 7.97 9 10.94 9 14 9 C 12 13 12 13 9.375 14.25 C 8.59125 14.4975 7.8075 14.745 7 15 C 7.33 15.53625 7.66 16.0725 8 16.625 C 9.22699204 19.5391061 9.14233286 21.86867708 9 25 C 8.443125 24.71125 7.88625 24.4225 7.3125 24.125 C 4.91505355 22.9586747 2.48403061 21.9660119 0 21 C -0.78375 21.66 -1.5675 22.32 -2.375 23 C -5 25 -5 25 -7 25 C -6.67 21.7 -6.34 18.4 -6 15 C -6.99 14.38125 -7.98 13.7625 -9 13.125 C -9.99 12.42375 -10.98 11.7225 -12 11 C -12 10.34 -12 9.68 -12 9 C -8.7 9 -5.4 9 -2 9 C -1.855625 7.88625 -1.71125 6.7725 -1.5625 5.625 C -1 2 -1 2 0 0 Z" stroke-linecap="round" />
</g>
		<g transform="matrix(1 0 0 1 -115.72 -119.57)"  >
<path style="stroke: none; stroke-width: 1; stroke-dasharray: none; stroke-linecap: butt; stroke-dashoffset: 0; stroke-linejoin: miter; stroke-miterlimit: 4; fill: rgb(245,237,238); fill-rule: nonzero; opacity: 1;" vector-effect="non-scaling-stroke"  transform=" translate(-1, -12.5)" d="M 0 0 C 0.66 0 1.32 0 2 0 C 3.49821059 3.37097383 4 5.20442119 4 9 C 7.3 9 10.6 9 14 9 C 14 9.66 14 10.32 14 11 C 12.03852126 12.38938077 10.03833424 13.7260411 8 15 C 8.33 18.3 8.66 21.6 9 25 C 4.16129032 23.11827957 4.16129032 23.11827957 2.125 21.625 C 0.02639594 20.76362958 0.02639594 20.76362958 -1.8046875 21.765625 C -3.57673272 22.77618894 -5.29262635 23.88364031 -7 25 C -7.17942163 21.05272412 -7.09350689 18.4019487 -5 15 C -5.8971875 14.566875 -5.8971875 14.566875 -6.8125 14.125 C -9 13 -9 13 -12 11 C -12 10.34 -12 9.68 -12 9 C -9.03 9 -6.06 9 -3 9 C -2.01 6.03 -1.02 3.06 0 0 Z" stroke-linecap="round" />
</g>
		<g transform="matrix(1 0 0 1 -83.72 -95.57)"  >
<path style="stroke: none; stroke-width: 1; stroke-dasharray: none; stroke-linecap: butt; stroke-dashoffset: 0; stroke-linejoin: miter; stroke-miterlimit: 4; fill: rgb(245,239,239); fill-rule: nonzero; opacity: 1;" vector-effect="non-scaling-stroke"  transform=" translate(-1, -12.5)" d="M 0 0 C 0.66 0 1.32 0 2 0 C 2.99 2.64 3.98 5.28 5 8 C 7.97 8.33 10.94 8.66 14 9 C 12.86280581 12.41158256 11.95657056 13.11854601 9 15 C 8.34 15 7.68 15 7 15 C 7.33 15.721875 7.66 16.44375 8 17.1875 C 9.00603529 20.01697427 9.16977402 22.02895466 9 25 C 8.443125 24.71125 7.88625 24.4225 7.3125 24.125 C 4.91505355 22.9586747 2.48403061 21.9660119 0 21 C -0.78375 21.66 -1.5675 22.32 -2.375 23 C -5 25 -5 25 -7 25 C -6.54177532 21.53058454 -6.10868317 18.32604951 -5 15 C -5.8971875 14.566875 -5.8971875 14.566875 -6.8125 14.125 C -9 13 -9 13 -12 11 C -12 10.34 -12 9.68 -12 9 C -8.7 9 -5.4 9 -2 9 C -1.855625 7.88625 -1.71125 6.7725 -1.5625 5.625 C -1 2 -1 2 0 0 Z" stroke-linecap="round" />
</g>
		<g transform="matrix(1 0 0 1 -95.72 -56.57)"  >
<path style="stroke: none; stroke-width: 1; stroke-dasharray: none; stroke-linecap: butt; stroke-dashoffset: 0; stroke-linejoin: miter; stroke-miterlimit: 4; fill: rgb(245,239,239); fill-rule: nonzero; opacity: 1;" vector-effect="non-scaling-stroke"  transform=" translate(-1, -12.5)" d="M 0 0 C 0.66 0 1.32 0 2 0 C 2.99 2.64 3.98 5.28 5 8 C 7.97 8.33 10.94 8.66 14 9 C 12.86280581 12.41158256 11.95657056 13.11854601 9 15 C 8.34 15 7.68 15 7 15 C 7.33 15.721875 7.66 16.44375 8 17.1875 C 9.00603529 20.01697427 9.16977402 22.02895466 9 25 C 8.443125 24.71125 7.88625 24.4225 7.3125 24.125 C 4.91505355 22.9586747 2.48403061 21.9660119 0 21 C -0.78375 21.66 -1.5675 22.32 -2.375 23 C -5 25 -5 25 -7 25 C -6.67 21.7 -6.34 18.4 -6 15 C -6.99 14.38125 -7.98 13.7625 -9 13.125 C -9.99 12.42375 -10.98 11.7225 -12 11 C -12 10.34 -12 9.68 -12 9 C -7.545 8.505 -7.545 8.505 -3 8 C -2.01 5.36 -1.02 2.72 0 0 Z" stroke-linecap="round" />
</g>
		<g transform="matrix(1 0 0 1 -247.22 -156.07)"  >
<path style="stroke: none; stroke-width: 1; stroke-dasharray: none; stroke-linecap: butt; stroke-dashoffset: 0; stroke-linejoin: miter; stroke-miterlimit: 4; fill: rgb(253,118,125); fill-rule: nonzero; opacity: 1;" vector-effect="non-scaling-stroke"  transform=" translate(3.5, -6)" d="M 0 0 C 0.66 0.33 1.32 0.66 2 1 C -1.63 4.63 -5.26 8.26 -9 12 C -9 7.8407692 -6.75316432 5.85455565 -4 3 C -1.6875 1.125 -1.6875 1.125 0 0 Z" stroke-linecap="round" />
</g>
</g>
</g>
</svg>