<?xml version="1.0" encoding="UTF-8" standalone="no" ?>
<!DOCTYPE svg PUBLIC "-//W3C//DTD SVG 1.1//EN" "http://www.w3.org/Graphics/SVG/1.1/DTD/svg11.dtd">
<svg xmlns="http://www.w3.org/2000/svg" xmlns:xlink="http://www.w3.org/1999/xlink" version="1.1" width="910" height="600" viewBox="19.94 55.38 910 600" xml:space="preserve">
<desc>Created with Fabric.js 5.2.4</desc>
<defs>
</defs>
<rect x="0" y="0" width="100%" height="100%" fill="transparent"></rect>
<g transform="matrix(1 0 0 1 455 300)" id="184a5578-b77f-4df0-8514-6c934dd087f5"  >
<rect style="stroke: none; stroke-width: 1; stroke-dasharray: none; stroke-linecap: butt; stroke-dashoffset: 0; stroke-linejoin: miter; stroke-miterlimit: 4; fill: rgb(255,255,255); fill-rule: nonzero; opacity: 1; visibility: hidden;" vector-effect="non-scaling-stroke"  x="-455" y="-300" rx="0" ry="0" width="910" height="600" />
</g>
<g transform="matrix(Infinity NaN NaN Infinity 0 0)" id="444fdd5e-c227-431f-a777-aa47d00a18d4"  >
</g>
<g transform="matrix(1.49 0 0 1.49 479 355.79)"  >
<g style="" vector-effect="non-scaling-stroke"   >
		<g transform="matrix(1 0 0 1 -2.77 0)"  >
<path style="stroke: none; stroke-width: 1; stroke-dasharray: none; stroke-linecap: butt; stroke-dashoffset: 0; stroke-linejoin: miter; stroke-miterlimit: 4; fill: rgb(65,71,155); fill-rule: nonzero; opacity: 1;" vector-effect="non-scaling-stroke"  transform=" translate(-206.55, -168.49)" d="M 0 0 C 1.85796948 -0.00461485 3.71593529 -0.01097167 5.57389355 -0.01890898 C 10.65442257 -0.03554515 15.7346495 -0.02738193 20.81517935 -0.0149641 C 26.30402221 -0.00589252 31.79281408 -0.0198938 37.28164673 -0.03088379 C 48.02439246 -0.04865107 58.76702627 -0.04483697 69.50977635 -0.03323323 C 78.2422345 -0.02419215 86.97466132 -0.02297783 95.7071228 -0.02732849 C 96.95094481 -0.02794142 98.19476681 -0.02855436 99.47628039 -0.02918586 C 102.00324322 -0.03046479 104.53020603 -0.03176164 107.05716884 -0.03307623 C 130.06619019 -0.04415192 153.07516202 -0.03267463 176.08417122 -0.01170584 C 197.07185317 0.00727545 218.05943803 0.00557689 239.04711914 -0.0135498 C 262.6474587 -0.0349858 286.24775694 -0.04337819 309.84810734 -0.03110075 C 312.36566733 -0.02982658 314.88322734 -0.0285691 317.40078735 -0.02732849 C 319.25871919 -0.02640284 319.25871919 -0.02640284 321.154185 -0.02545848 C 329.87407403 -0.02200777 338.59392857 -0.02782795 347.31381226 -0.0372467 C 357.9434197 -0.04847608 368.57290902 -0.04540679 379.20250297 -0.02412373 C 384.62375243 -0.01362607 390.04480509 -0.00946972 395.46605301 -0.02272034 C 400.43287476 -0.03467646 405.39931805 -0.02802853 410.36610568 -0.00681013 C 412.15867701 -0.00235772 413.9512806 -0.00457958 415.74383104 -0.01431328 C 429.16371376 -0.08157025 440.69958268 1.02141105 451.29223633 10.16418457 C 460.46112217 19.66562067 462.85913728 29.00228931 462.82138062 41.75372314 C 462.82591173 42.87900335 462.83044284 44.00428355 462.83511126 45.16366315 C 462.84776121 48.93048038 462.84613447 52.69715314 462.84448242 56.46398926 C 462.84938141 59.16635685 462.85721632 61.86871434 462.86483765 64.57107544 C 462.88142639 71.14781855 462.88694624 77.72452581 462.8880624 84.3012881 C 462.88901393 89.64952571 462.89312946 94.99775153 462.89946365 100.34598541 C 462.91707063 115.52206991 462.92630343 130.69812616 462.92480271 145.87422094 C 462.92468284 147.10056544 462.92468284 147.10056544 462.92456055 148.35168457 C 462.92447879 149.17025032 462.92439702 149.98881607 462.92431279 150.83218685 C 462.92350014 164.09367173 462.94263367 177.35504296 462.97083728 190.61649498 C 462.9995937 204.24585736 463.01337604 217.87516437 463.01164973 231.50455785 C 463.01098676 239.15134943 463.01643822 246.79802188 463.03800583 254.44478607 C 463.05625403 260.95620163 463.06053527 267.46744406 463.04698698 273.97887418 C 463.04047526 277.29786885 463.04246509 280.6162619 463.05769348 283.9352684 C 463.07316664 287.54187697 463.06382274 291.147621 463.0484314 294.75421143 C 463.05871852 295.79129706 463.06900565 296.8283827 463.07960451 297.89689517 C 462.97972502 308.52817773 459.73316677 317.2051222 452.82348633 325.28137207 C 441.5720265 336.31980942 428.2774429 336.94974141 413.46194458 336.89561462 C 411.60585326 336.89978992 409.7497645 336.90526851 407.89368045 336.91193444 C 402.80449211 336.92638202 397.71546581 336.92214642 392.62626863 336.91476762 C 387.13330711 336.91003657 381.64038068 336.92254526 376.14743042 336.93278503 C 365.3905918 336.94997963 354.63381159 336.95081166 343.8769628 336.94557213 C 335.13346269 336.9415304 326.38997984 336.94297403 317.64648056 336.94832039 C 316.40196336 336.94906881 315.15744617 336.94981723 313.87521633 336.95058833 C 311.34696317 336.95211981 308.81871002 336.95365816 306.29045688 336.9552033 C 289.31582424 336.96503172 272.34119786 336.96919618 255.3665638 336.96157742 C 254.37129044 336.96113166 254.37129044 336.96113166 253.35591055 336.96067689 C 247.96799289 336.95822805 242.5800753 336.95561642 237.19215772 336.95299276 C 216.17812362 336.94289129 195.16416944 336.95124492 174.15014648 336.9744873 C 150.52933315 337.00057077 126.90855594 337.0133554 103.28772533 337.00629956 C 90.78514619 337.00280616 78.28263267 337.0050474 65.78006363 337.02255058 C 55.13681954 337.037266 44.49368728 337.03791656 33.8504454 337.02047967 C 28.42123568 337.01196192 22.99222578 337.00983924 17.56302643 337.02513123 C 12.58997582 337.0389649 7.61729648 337.03423191 2.64426742 337.01489199 C 0.8482568 337.01112765 -0.94778348 337.01406644 -2.74376772 337.02450364 C -16.03382881 337.09622654 -28.07810928 335.68175697 -38.44604492 326.50793457 C -47.12493747 316.71948133 -49.90818098 307.90803889 -49.83372498 295.02163696 C -49.83911051 293.89464791 -49.84449605 292.76765886 -49.85004479 291.60651863 C -49.86430469 287.84584303 -49.85722524 284.08552039 -49.85009766 280.3248291 C -49.85416034 277.6221628 -49.8626667 274.9195143 -49.87089539 272.21685791 C -49.888055 265.6470524 -49.88892928 259.07734266 -49.88368248 252.50752057 C -49.87963409 247.16504695 -49.88109228 241.82260153 -49.88643074 236.48012924 C -49.88717916 235.7185249 -49.88792758 234.95692056 -49.88869869 234.1722373 C -49.89023023 232.62482214 -49.89176858 231.07740699 -49.89331365 229.52999185 C -49.90702854 215.03205303 -49.90160823 200.53416824 -49.89012844 186.03623067 C -49.8801981 172.78780108 -49.89313505 159.53951119 -49.91706263 146.29110314 C -49.94147573 132.67071111 -49.95105602 119.05038408 -49.94440991 105.42997062 C -49.94092246 97.78992327 -49.94311824 90.1499833 -49.96066093 82.50995255 C -49.97541065 76.00589572 -49.97598241 69.50202191 -49.95859002 62.99796857 C -49.95009988 59.68301752 -49.95006413 56.36866019 -49.96324158 53.05368423 C -49.97646472 49.45154996 -49.96489064 45.85029633 -49.94725037 42.24819946 C -49.95685537 41.21247807 -49.96646038 40.17675667 -49.97635645 39.10964978 C -49.85612597 27.13144634 -45.66154476 18.113164 -37.44604492 9.50793457 C -27.26216363 -0.31481618 -13.19353167 -0.07164203 0 0 Z" stroke-linecap="round" />
</g>
		<g transform="matrix(1 0 0 1 106.27 -97.25)"  >
<path style="stroke: none; stroke-width: 1; stroke-dasharray: none; stroke-linecap: butt; stroke-dashoffset: 0; stroke-linejoin: miter; stroke-miterlimit: 4; fill: rgb(244,244,244); fill-rule: nonzero; opacity: 1;" vector-effect="non-scaling-stroke"  transform=" translate(-153.03, -70.74)" d="M 0 0 C 67.02173963 -0.1613254 67.02173963 -0.1613254 95.03515625 -0.1953125 C 101.44677776 -0.20314352 107.85839887 -0.21122532 114.27001953 -0.21972656 C 115.07356806 -0.22078156 115.87711658 -0.22183655 116.70501506 -0.22292352 C 129.66332161 -0.24030208 142.62155687 -0.27182701 155.5798212 -0.30861118 C 168.88690073 -0.34606938 182.19394304 -0.36824615 195.50107312 -0.37635398 C 203.70669523 -0.38183166 211.91211591 -0.39910764 220.11767599 -0.43166587 C 225.75102528 -0.45287406 231.38427103 -0.45918585 237.01765731 -0.45400551 C 240.26377763 -0.45145345 243.5094749 -0.45747061 246.75554848 -0.4768219 C 250.28553053 -0.49682861 253.81466232 -0.49189944 257.34466553 -0.48101807 C 258.86223202 -0.49849512 258.86223202 -0.49849512 260.41045642 -0.51632524 C 271.14830074 -0.42732954 280.58074728 2.6152867 288.73828125 9.65625 C 319.43948986 41.47097395 300 120.34840085 300 142 C 201 142 102 142 0 142 C 0 95.14 0 48.28 0 0 Z" stroke-linecap="round" />
</g>
		<g transform="matrix(1 0 0 1 103.23 97.2)"  >
<path style="stroke: none; stroke-width: 1; stroke-dasharray: none; stroke-linecap: butt; stroke-dashoffset: 0; stroke-linejoin: miter; stroke-miterlimit: 4; fill: rgb(244,244,244); fill-rule: nonzero; opacity: 1;" vector-effect="non-scaling-stroke"  transform=" translate(-150, -71.18)" d="M 0 0 C 99 0 198 0 300 0 C 300 119.40016234 300 119.40016234 290.26953125 130.7734375 C 281.14477441 139.72543646 270.10901342 142.46698049 257.70542908 142.36076355 C 256.59926367 142.36332682 255.49309826 142.3658901 254.35341269 142.36853105 C 250.66376206 142.37345447 246.97452476 142.35699931 243.28491211 142.34057617 C 240.63336265 142.33972959 237.98183816 142.3400737 235.33029175 142.34190369 C 229.63039343 142.34347277 223.93059855 142.33410191 218.23072624 142.31719017 C 209.98979923 142.292755 201.74892196 142.28499029 193.50796265 142.2812262 C 180.13589535 142.27466878 166.76388312 142.25472693 153.3918457 142.22631836 C 140.40617137 142.19875938 127.42051209 142.17756923 114.43481445 142.16479492 C 113.62551812 142.16399093 112.81622178 142.16318694 111.98240131 142.16235858 C 105.65268241 142.1561199 99.32296317 142.15024927 92.99324381 142.14449489 C 61.99544533 142.11622047 30.99778477 142.05585932 0 142 C 0 95.14 0 48.28 0 0 Z" stroke-linecap="round" />
</g>
		<g transform="matrix(1 0 0 1 -179.52 -97.22)"  >
<path style="stroke: none; stroke-width: 1; stroke-dasharray: none; stroke-linecap: butt; stroke-dashoffset: 0; stroke-linejoin: miter; stroke-miterlimit: 4; fill: rgb(244,244,244); fill-rule: nonzero; opacity: 1;" vector-effect="non-scaling-stroke"  transform=" translate(-35.14, -71.22)" d="M 0 0 C 1.27020618 -0.00048214 2.54041237 -0.00096428 3.84910965 -0.00146103 C 7.24649667 -0.00235417 10.64330579 0.02061612 14.04055786 0.04898071 C 17.2430044 0.07197323 20.44543012 0.07284462 23.64794922 0.07568359 C 32.97793941 0.09656868 42.30782493 0.1524138 51.63769531 0.20410156 C 82.94644531 0.32785156 82.94644531 0.32785156 114.88769531 0.45410156 C 114.88769531 47.31410156 114.88769531 94.17410156 114.88769531 142.45410156 C 62.41769531 142.45410156 9.94769531 142.45410156 -44.11230469 142.45410156 C -44.19480469 124.20097656 -44.27730469 105.94785156 -44.36230469 87.14160156 C -44.3987207 81.39455811 -44.43513672 75.64751465 -44.47265625 69.72631836 C -44.49072266 62.66662598 -44.49072266 62.66662598 -44.49407959 59.35359192 C -44.50019089 57.05737704 -44.51419451 54.76117439 -44.53460693 52.46504211 C -44.56409362 48.97118087 -44.56792185 45.47809878 -44.56640625 41.98413086 C -44.58079868 40.97445346 -44.59519112 39.96477606 -44.61001968 38.92450237 C -44.54129912 27.00670943 -40.275355 18.00439335 -32.11230469 9.45410156 C -23.48240023 1.13022209 -11.43773555 -0.14240543 0 0 Z" stroke-linecap="round" />
</g>
		<g transform="matrix(1 0 0 1 -179.44 97.26)"  >
<path style="stroke: none; stroke-width: 1; stroke-dasharray: none; stroke-linecap: butt; stroke-dashoffset: 0; stroke-linejoin: miter; stroke-miterlimit: 4; fill: rgb(244,244,244); fill-rule: nonzero; opacity: 1;" vector-effect="non-scaling-stroke"  transform=" translate(-79.33, -71.25)" d="M 0 0 C 52.47 0 104.94 0 159 0 C 159 46.86 159 93.72 159 142 C 138.106875 142.0825 117.21375 142.165 95.6875 142.25 C 89.10514404 142.28641602 82.52278809 142.32283203 75.7409668 142.36035156 C 67.66564941 142.37841797 67.66564941 142.37841797 63.87800598 142.3817749 C 61.24817665 142.38789361 58.61913204 142.40039209 55.98945618 142.42230225 C 51.99242003 142.45515804 47.99595022 142.45561894 43.9987793 142.45410156 C 42.2594225 142.47569021 42.2594225 142.47569021 40.48492718 142.497715 C 29.54697963 142.44241865 19.31461468 139.35698995 11 132 C 2.37867358 122.27647247 -0.47657495 113.5087139 -0.34057617 100.69702148 C -0.34093778 99.58577188 -0.34129938 98.47452227 -0.34167194 97.32959843 C -0.3394465 93.75990866 -0.31666354 90.1906986 -0.29296875 86.62109375 C -0.28855366 84.40629299 -0.28549574 82.19148909 -0.28381348 79.97668457 C -0.26813394 71.79690841 -0.2262501 63.61719941 -0.1875 55.4375 C -0.125625 37.143125 -0.06375 18.84875 0 0 Z" stroke-linecap="round" />
</g>
</g>
</g>
</svg>