<svg width="87" height="66" viewBox="0 0 87 66" fill="none" xmlns="http://www.w3.org/2000/svg">
<mask id="mask0_502_75" style="mask-type:luminance" maskUnits="userSpaceOnUse" x="0" y="0" width="87" height="66">
<path d="M0 0.5H86.28V65.21H0V0.5Z" fill="white"/>
</mask>
<g mask="url(#mask0_502_75)">
<path fill-rule="evenodd" clip-rule="evenodd" d="M0 0.5H86.28V65.21H0V0.5Z" fill="#F7FCFF"/>
<path fill-rule="evenodd" clip-rule="evenodd" d="M0 40.045V45.4375H86.28V40.045H0Z" fill="#E31D1C"/>
<path fill-rule="evenodd" clip-rule="evenodd" d="M0 49.9312V55.3237H86.28V49.9312H0Z" fill="#E31D1C"/>
<path fill-rule="evenodd" clip-rule="evenodd" d="M0 20.2723V25.6648H86.28V20.2723H0Z" fill="#E31D1C"/>
<path fill-rule="evenodd" clip-rule="evenodd" d="M0 59.8175V65.21H86.28V59.8175H0Z" fill="#E31D1C"/>
<path fill-rule="evenodd" clip-rule="evenodd" d="M0 30.1588V35.5513H86.28V30.1588H0Z" fill="#E31D1C"/>
<path fill-rule="evenodd" clip-rule="evenodd" d="M0 0.5V5.8925H86.28V0.5H0Z" fill="#E31D1C"/>
<path fill-rule="evenodd" clip-rule="evenodd" d="M0 10.3865V15.779H86.28V10.3865H0Z" fill="#E31D1C"/>
<path d="M0 0.5H53.925V35.5512H0V0.5Z" fill="#2E42A5"/>
<path fill-rule="evenodd" clip-rule="evenodd" d="M4.64288 8.42353L2.68571 9.79559L3.34646 7.35384L1.60815 5.80644H3.87862L4.64013 3.81372L5.53304 5.80644H7.46857L5.94778 7.35384L6.53653 9.79559L4.64288 8.42353ZM15.4279 8.42353L13.4707 9.79559L14.1315 7.35384L12.3932 5.80644H14.6636L15.4251 3.81372L16.318 5.80644H18.2536L16.7328 7.35384L17.3215 9.79559L15.4279 8.42353ZM24.2557 9.79559L26.2129 8.42353L28.1065 9.79559L27.5177 7.35384L29.0386 5.80644H27.103L26.2101 3.81372L25.4486 5.80644H23.1782L24.9165 7.35384L24.2557 9.79559ZM36.998 8.42353L35.0407 9.79559L35.7016 7.35384L33.9631 5.80644H36.2336L36.9953 3.81372L37.888 5.80644H39.8236L38.3027 7.35384L38.8915 9.79559L36.998 8.42353ZM2.68571 20.5806L4.64288 19.2085L6.53653 20.5806L5.94778 18.1388L7.46857 16.5914H5.53304L4.64013 14.5987L3.87862 16.5914H1.60815L3.34646 18.1388L2.68571 20.5806ZM15.4279 19.2085L13.4707 20.5806L14.1315 18.1388L12.3932 16.5914H14.6636L15.4251 14.5987L16.318 16.5914H18.2536L16.7328 18.1388L17.3215 20.5806L15.4279 19.2085ZM24.2557 20.5806L26.2129 19.2085L28.1065 20.5806L27.5177 18.1388L29.0386 16.5914H27.103L26.2101 14.5987L25.4486 16.5914H23.1782L24.9165 18.1388L24.2557 20.5806ZM36.998 19.2085L35.0407 20.5806L35.7016 18.1388L33.9631 16.5914H36.2336L36.9953 14.5987L37.888 16.5914H39.8236L38.3027 18.1388L38.8915 20.5806L36.998 19.2085ZM2.68571 31.3656L4.64288 29.9935L6.53653 31.3656L5.94778 28.9239L7.46857 27.3764H5.53304L4.64013 25.3837L3.87862 27.3764H1.60815L3.34646 28.9239L2.68571 31.3656ZM15.4279 29.9935L13.4707 31.3656L14.1315 28.9239L12.3932 27.3764H14.6636L15.4251 25.3837L16.318 27.3764H18.2536L16.7328 28.9239L17.3215 31.3656L15.4279 29.9935ZM24.2557 31.3656L26.2129 29.9935L28.1065 31.3656L27.5177 28.9239L29.0386 27.3764H27.103L26.2101 25.3837L25.4486 27.3764H23.1782L24.9165 28.9239L24.2557 31.3656ZM36.998 29.9935L35.0407 31.3656L35.7016 28.9239L33.9631 27.3764H36.2336L36.9953 25.3837L37.888 27.3764H39.8236L38.3027 28.9239L38.8915 31.3656L36.998 29.9935ZM45.8257 9.79559L47.783 8.42353L49.6765 9.79559L49.0877 7.35384L50.6086 5.80644H48.673L47.7803 3.81372L47.0186 5.80644H44.7481L46.4866 7.35384L45.8257 9.79559ZM47.783 19.2085L45.8257 20.5806L46.4866 18.1388L44.7481 16.5914H47.0186L47.7803 14.5987L48.673 16.5914H50.6086L49.0877 18.1388L49.6765 20.5806L47.783 19.2085ZM45.8257 31.3656L47.783 29.9935L49.6765 31.3656L49.0877 28.9239L50.6086 27.3764H48.673L47.7803 25.3837L47.0186 27.3764H44.7481L46.4866 28.9239L45.8257 31.3656ZM10.0354 13.816L8.07822 15.1881L8.73896 12.7463L7.00067 11.1989H9.27112L10.0326 9.20622L10.9255 11.1989H12.8611L11.3403 12.7463L11.929 15.1881L10.0354 13.816ZM18.8632 15.1881L20.8204 13.816L22.714 15.1881L22.1253 12.7463L23.6461 11.1989H21.7105L20.8176 9.20622L20.0561 11.1989H17.7857L19.524 12.7463L18.8632 15.1881ZM31.6055 13.816L29.6482 15.1881L30.3091 12.7463L28.5706 11.1989H30.8411L31.6028 9.20622L32.4955 11.1989H34.4311L32.9102 12.7463L33.499 15.1881L31.6055 13.816ZM8.07822 25.9731L10.0354 24.601L11.929 25.9731L11.3403 23.5313L12.8611 21.9839H10.9255L10.0326 19.9912L9.27112 21.9839H7.00067L8.73896 23.5313L8.07822 25.9731ZM20.8204 24.601L18.8632 25.9731L19.524 23.5313L17.7857 21.9839H20.0561L20.8176 19.9912L21.7105 21.9839H23.6461L22.1253 23.5313L22.714 25.9731L20.8204 24.601ZM29.6482 25.9731L31.6055 24.601L33.499 25.9731L32.9102 23.5313L34.4311 21.9839H32.4955L31.6028 19.9912L30.8411 21.9839H28.5706L30.3091 23.5313L29.6482 25.9731ZM42.3905 13.816L40.4332 15.1881L41.0941 12.7463L39.3556 11.1989H41.6261L42.3878 9.20622L43.2805 11.1989H45.2161L43.6952 12.7463L44.284 15.1881L42.3905 13.816ZM40.4332 25.9731L42.3905 24.601L44.284 25.9731L43.6952 23.5313L45.2161 21.9839H43.2805L42.3878 19.9912L41.6261 21.9839H39.3556L41.0941 23.5313L40.4332 25.9731Z" fill="#F7FCFF"/>
</g>
</svg>
